<?xml version="1.0" encoding="UTF-8"?>
<svg id="Layer_1" xmlns="http://www.w3.org/2000/svg" xmlns:xlink="http://www.w3.org/1999/xlink" viewBox="0 0 1024 1024">
  <defs>
    <style>
      .cls-1 {
        fill: #32266f;
      }

      .cls-2 {
        fill: #c6a3ce;
      }

      .cls-3 {
        fill: #6f70b3;
      }

      .cls-4 {
        fill: url(#linear-gradient-5);
      }

      .cls-5 {
        fill: url(#linear-gradient-4);
      }

      .cls-6 {
        fill: url(#linear-gradient-3);
      }

      .cls-7 {
        fill: url(#linear-gradient-2);
      }

      .cls-8 {
        fill: #e9a0c1;
      }

      .cls-9 {
        fill: #e3acd9;
      }

      .cls-10 {
        fill: url(#linear-gradient);
      }

      .cls-11 {
        fill: #eb9bb4;
      }

      .cls-12 {
        fill: #2a1f49;
      }

      .cls-13 {
        fill: #f6eff7;
      }

      .cls-14 {
        fill: #31318b;
      }

      .cls-15 {
        fill: #ded6ec;
      }

      .cls-16 {
        fill: #7f86c3;
      }

      .cls-17 {
        fill: #f5e2e4;
      }

      .cls-18 {
        fill: #8353a6;
      }
    </style>
    <linearGradient id="linear-gradient" x1="511.89" y1="-353.03" x2="505.72" y2="47.55" gradientTransform="translate(0 664)" gradientUnits="userSpaceOnUse">
      <stop offset="0" stop-color="#fbcfd4"/>
      <stop offset="1" stop-color="#d6d8f5"/>
    </linearGradient>
    <linearGradient id="linear-gradient-2" x1="786.07" y1="-151.56" x2="779.34" y2="-148.33" gradientTransform="translate(0 664)" gradientUnits="userSpaceOnUse">
      <stop offset="0" stop-color="#cdaabe"/>
      <stop offset="1" stop-color="#eaccd8"/>
    </linearGradient>
    <linearGradient id="linear-gradient-3" x1="478.32" y1="61.21" x2="466.99" y2="26.33" gradientTransform="translate(0 664)" gradientUnits="userSpaceOnUse">
      <stop offset="0" stop-color="#6269ab"/>
      <stop offset="1" stop-color="#9dabeb"/>
    </linearGradient>
    <linearGradient id="linear-gradient-4" x1="383.92" y1="24.59" x2="374.83" y2="53.52" gradientTransform="translate(0 664)" gradientUnits="userSpaceOnUse">
      <stop offset="0" stop-color="#7883cd"/>
      <stop offset="1" stop-color="#9ca4d8"/>
    </linearGradient>
    <linearGradient id="linear-gradient-5" x1="810.04" y1="-249.65" x2="897.15" y2="-220.76" gradientTransform="translate(0 664)" gradientUnits="userSpaceOnUse">
      <stop offset="0" stop-color="#261c4e"/>
      <stop offset="1" stop-color="#222579"/>
    </linearGradient>
  </defs>
  <path class="cls-13" d="M0,0h1024v1024H0V0Z"/>
  <path class="cls-17" d="M747.47,598.87c-.2,4.65-.75,10.98-4.41,14.36-.76.7-1.8,1.17-2.76,1.52l-.26-1.65c3.4-3.33,6.03-9.72,7.43-14.23Z"/>
  <path class="cls-17" d="M776.78,519.62c.64.3.99.71,1.68.38.76-.35,1.1-.74,1.69-1.29,1.16-1.09,2.31-1.75,3.97-1.83,2.24-.11,3.93,1.84,5.46,3.21-4.21-.07-7.96-.61-11.18,2.66-3.68,3.74-5.58,6.79-11.01,8.1,1.33-1.58,2.57-2.97,3.34-4.92,1.73-2.44,4.22-3.93,6.05-6.31Z"/>
  <path class="cls-9" d="M939.93,371.67c3.49,11.58,1.96,24.62-3.65,35.38-.29.54-.6,1.05-.94,1.56.83-3.69,1.12-7.13,1.19-10.9.55-1.87,1-3.77,1.34-5.7.34-1.92.57-3.86.7-5.81.91-4.73.56-9.73,1.36-14.52h0Z"/>
  <path class="cls-11" d="M808.39,527.73c4.65,1.62,9.29,2.95,14.06,4.14,1.98.49,4.8.69,6.61,1.47,1.7,1.67,4.84,1.96,7.15,2.49,13.71,3.1,24.61,2.4,38.37,3.04-5.09,2.31-11.44,2.97-16.98,3.15-14.48.48-45.53-2.89-56.24-12.91,2.64-1.41,4.64-.38,7.02-1.38h0Z"/>
  <path class="cls-16" d="M628.49,704.84c4-1.97,6.96-4.89,10.67-7.25,2.82,1.49,5.66,2.94,8.33,4.7l1.45.57c4.33,2.18,8.86,4.74,13.53,6.1,10.87,3.14,31.85,2.94,42.43-.61.84-.28,1.36-.47,2.09-.97,1.72-.64,3.33-1.66,4.93-2.56l.15.76c-1.07.82-2.11,1.54-3.3,2.2.88.69,2.09,1.11,3.24.9,1.07-.2.67-.25,1.64-.55.28-.09.7-.14,1.01-.19l.46.43c-2.99,1.47-6.45,2.56-9.67,3.43-25.38,6.83-41.74,3.84-64.19-8.93l-1.32-.55c-1.03.6-1.54,1.19-2.29,2.07-4.84,5.68-14.41,8.56-21.63,9.01-9.76.61-22.05,1.22-31.11-2.67,5.24-2.88,33.44,2.15,43.57-5.89h0Z"/>
  <path class="cls-2" d="M742.96,559.23c1.32.44,1.81,1.4,2.69,2.44,2.96,8.07,6.04,22.47,3.24,30.85-.04.12-.12.23-.18.34-.35,2.03-.69,4.03-1.24,6.01-1.4,4.52-4.03,10.91-7.43,14.23l.26,1.65c-.09.57-.31,1.14-.27,1.72.14,2.52,7.32,13.17,8.6,17,2.41,7.27,3.44,14.69,3.27,22.33.16,12.19-2.65,26.39-11.39,35.49-.43.45-.86.86-1.33,1.26-5.7,5.95-16.26,13.08-24.03,15.8l-.46-.43c-.31.04-.73.1-1.01.19-.97.3-.57.35-1.64.55-1.14.21-2.36-.22-3.24-.9,1.19-.66,2.22-1.38,3.3-2.2l-.15-.76c2.42-2.32,6.09-4.07,9.1-5.51,4.07-3.34,8.2-6.68,11.93-10.4,9.27-9.25,15.75-25.01,15.68-38.09-.6-9.17-3.08-21.12-7.76-29.17-1.19-2.04-2.88-3.76-4.11-5.8-.84-1.39-.85-2.3-.47-3.83l.34-1.65c1.63-4.57,3.32-9.05,4.77-13.69,3.54-11.31,5.34-22.26,2.31-34.07-.29-1.12-.52-2.24-.75-3.37h-.03Z"/>
  <path class="cls-2" d="M937.55,377.16c-.09-4.97-1.31-12.17-.11-16.89.98,3.59,2.29,7.68,2.48,11.4-.8,4.79-.44,9.8-1.36,14.52-.12,1.95-.35,3.89-.7,5.81-.34,1.92-.79,3.82-1.34,5.7-.07,3.77-.36,7.21-1.19,10.9-6.66,12.18-12.8,24.79-20.4,36.42-3.34,5.12-9.64,8.83-11.8,14.55-7,18.48,4.35,38.66-6.04,59.96-4.63,9.49-12.78,15.51-22.51,19.32-13.76-.64-24.66.06-38.37-3.04-2.32-.52-5.45-.81-7.15-2.49,9.86.66,19.21,1.93,29.18,1.04,19.49-1.74,36.77-11.31,39.88-31.99,1.42-9.44.32-20.02.19-29.55-.08-5.59-.78-12.55.93-17.93,1.57-4.95,18.69-27.52,22.55-32.1,4.99-8.75,9.54-16.35,12.93-25.94,1.55-6.51,2.41-13.03,2.84-19.7h0Z"/>
  <path class="cls-10" d="M355.79,337.33c3.9-3.96,7.23-8.08,11.82-11.34,16.84-11.93,45.52-17.07,65.77-15.42,7.47.61,15.41,2.71,22.59,4.82,7.87,2.32,21.14,8.8,28.23,8.97,7.35.17,17.38-7.37,25.03-9.44,8.77-2.37,17.91-2.12,26.92-2.01,4.73.06,9.51.25,14.14,1.26,6.79,1.48,13.79,4.09,20.76,4.34,7.16.26,13.97-3.05,21.12-3.51,13.14-.85,25.83-.18,38.94-.05,5.24.05,10.48-.32,15.72-.33,2.06,0,4.36-.06,6.39.35,6.22,1.27,11.42,5.65,18.18,4.66,3.22-.47,6.51-2.06,9.63-3.02,8.45-2.59,28.82-.2,38.03.27,4.87.25,9.77.19,14.64.08,13.63-.33,28.28-4.28,41.75-2.18,6.51,1.02,13.04,5.2,18.84,8.18,14.3-3.6,27.76-8.73,42.36-2.28,2.26,1,6.75,4.33,8.86,4.38,7.84.17,14.28-5.08,21.98-5.65,3.48-.26,6.8.73,10.15,1.54,4.15,1,8.5,1.84,12.51,3.3,10.37,3.78,29.25,14.08,37.36,21.14,4.04,3.52,9.54,9.25,9.93,14.86-1.21,4.72.01,11.91.11,16.89-.42,6.67-1.29,13.19-2.84,19.7-3.39,9.59-7.94,17.19-12.93,25.94-3.86,4.58-20.98,27.16-22.55,32.1-1.71,5.39-1,12.34-.93,17.93.13,9.54,1.23,20.11-.19,29.55-3.11,20.68-20.39,30.25-39.88,31.99-9.97.89-19.31-.38-29.18-1.04-1.81-.78-4.63-.98-6.61-1.47-4.77-1.18-9.41-2.51-14.06-4.14-2.38,1.01-4.37-.03-7.02,1.38-1.22-.85-2.35-1.7-3.46-2.69-2.78-1.97-5.4-4.06-8.02-6.23l-.31-.1c-1.52-1.37-3.22-3.32-5.46-3.21-1.66.08-2.8.73-3.97,1.83-.59.56-.93.94-1.69,1.29-.7.32-1.04-.09-1.68-.38-1.82,2.38-4.32,3.86-6.05,6.31-.77,1.95-2.01,3.34-3.34,4.92-3.46,2.08-7.7,4.65-10.65,7.38-5.82,5.19-13.73,6.21-21.09,7.8,3.59,4.45,8.76,9.94,9.99,15.63-.88-1.04-1.37-1.99-2.69-2.44.24,1.13.47,2.25.75,3.37,3.02,11.81,1.23,22.76-2.31,34.07-1.45,4.64-3.14,9.12-4.77,13.69l-.34,1.65c-.38,1.53-.37,2.44.47,3.83,1.23,2.03,2.92,3.76,4.11,5.8,4.68,8.05,7.16,20,7.76,29.17.07,13.08-6.41,28.84-15.68,38.09-3.73,3.72-7.86,7.06-11.93,10.4-3.02,1.44-6.68,3.19-9.1,5.51-1.6.9-3.21,1.92-4.93,2.56-.73.5-1.25.69-2.09.97-10.58,3.55-31.56,3.75-42.43.61-4.67-1.35-9.2-3.91-13.53-6.1l-1.45-.57c-2.66-1.77-5.51-3.21-8.33-4.7-3.71,2.36-6.66,5.28-10.67,7.25-10.13,8.05-38.33,3.01-43.57,5.89-.58-.2-1.11-.4-1.66-.67-14.49-7.29-21.25-17.43-21.52-33.48-.07-3.79.32-9.17-1.04-12.72-.09-.22-.18-.44-.27-.67-2.19.49-4.18.9-6.45.93-2.65.68-5.21,1.31-7.93,1.67.08,10.37,2.59,28.73-5.18,36.6-.28.28-.56.55-.85.82-7.95,7.79-16.72,10.49-27.66,10.41-3.18-.02-6.86.16-9.96-.57-7.89-.21-14.68-2.48-21.99-5.2-4.51,2.98-8.93,4.75-14.25,5.6-15.75,2.53-27.28.13-40.04-9.07-6.29,2.15-12.55,4.73-18.97,6.47-18.49,5.03-41.36,5.85-59.56-.8-5.49-2.01-10.62-4.98-15.68-7.87-7.35-1.69-21-18.55-25.4-24.63-.26-.16-.54-.29-.77-.49-5.65-4.88-11.18-26.93-12.68-34.41-2.48-12.42-2.04-32.31,1.1-44.67,3.33-13.09,14.18-32.35,24.08-41.46,6.07-5.59,15.64-9.15,20.15-16.08.08-.12.16-.25.24-.38-4.12-.58-7.68-2.74-10.33-5.89-3.65-1.49-7.7-4.41-10.45-7.23-1.29-1.04-1.94-1.87-3.61-2.07-4.48,3.2-7.86,7.71-12.17,11.1-8.46,6.65-24.61,9.49-35.06,7.85-5.34-.84-9.77-2.5-13.61-6.34l.15-.25.92.07.03-.43-.5-.21c-1.23-.52-2.13-.89-3.05-1.91-2.76-1.78-6.84-2.84-9.92-4.23l-.53-.06c-.26-.03-.52-.05-.78-.08-1.05-.12-1.78-.24-2.8.11-4.09,1.39-10.54,7.47-17.12,9.79-11.33,3.99-27.14,3.17-37.89-2.29-4.38-2.22-8.03-5.54-12.61-7.73-2.79-1.71-5.42-4.08-8.18-5.93-1.08-.72-2.06-1.56-2.94-2.51-2.22-2.45-3.94-5.55-5.67-8.36-3.09-5.02-6.18-10.04-8.66-15.4-2.85-6.17-5.11-12.71-8.37-18.67-10.26-18.79-21.72-36.86-32.19-55.53-2.87-5.12-6.19-9.97-8.72-15.29-1.86-3.91-3.14-8.01-4.74-12.02-1.49-3.73-3.53-7.45-4.57-11.32-1.29-4.85-1.07-10.44-.85-15.42.38-8.55,7.61-18.19,13.91-23.82,5.57-4.98,26-17.21,33.26-19.68,6.96-2.37,22.39-3.69,29-.52,6.76,3.24,15.93,15.2,22.85,15.41,4.1.12,8.76-9.96,11.86-13.03.25-.24.5-.48.75-.72,3.68-3.39,7.84-5.31,12.48-6.97,24.08-8.58,37,10.72,49,9.24,3.59-.44,6.41-2.53,9.25-4.59,12.14-8.81,19.33-11.28,34.48-11.02,3.69.06,7.42.23,11.05.92,3.39.64,6.54,2,9.8,3.08,6.91,2.29,13.65,3.7,19.29,8.68,3.28,2.89,5.12,7.33,8.24,10.53l.54.54,5.59-.55.05.07Z"/>
  <path class="cls-2" d="M303.73,519.48c1.02-2.04,1.19-4.19,2.18-6.2l.77-.02,1.96,2.24c-.4,1.65-.93,3.4-2.4,4.42-.61.42-1.14.22-1.84.17l-.67-.61h0Z"/>
  <path class="cls-9" d="M161.14,524.34c.87-.48,1.4-1.13,2.4-.8,1.7.57,5.75,3.24,6.5,4.93l-.73,1.8c-2.79-1.71-5.42-4.08-8.18-5.93h0Z"/>
  <path class="cls-2" d="M407.84,534.71c4.48.62,8.82.96,13.33.6l.92.52c-1.46.33-4,.06-5.18.74,2.37.82,4.87.19,7.29.89-6.09.24-11.83-.46-17.83-1.41l1.47-1.34h0Z"/>
  <path class="cls-15" d="M734.59,649.4c.65,4.14,1.26,10.46-1.17,14.09-.45.67-1.11,1.16-1.72,1.66.46-2.98.88-5.97,1.24-8.97.97-2.36,1.4-4.26,1.65-6.78h0Z"/>
  <path class="cls-15" d="M319.1,660.44c3.37,2.54,6.65,7.76,8.82,11.42-1.27-.76-2.72-1.38-3.91-2.25-3.21-2.33-4.42-5.35-4.9-9.16h-.01Z"/>
  <path class="cls-2" d="M729.39,566.69c2.55,2.12,2.56,3.52,2.85,6.7.24,2.6.71,5.98-.01,8.54l-.28.12c.09-1.98.12-3.93.02-5.91l-.54-.55c-1.03.97-.77,2.54-.8,3.94-.06,2.76-.21,4.67-1.13,7.3.06-6.79.83-13.33-.11-20.12v-.02Z"/>
  <path class="cls-14" d="M529.26,647.08c7.9-4.55,14.32.85,24.87-7.82l.46,1.51c-7.43,6.98-15.83,6.43-25.33,6.31Z"/>
  <path class="cls-3" d="M656.01,688.74c8.38,2.95,15.01,2.86,22.93,4.88,1.02.26,1.64.71,2.37,1.43-.14.01-.27.02-.41.03-8.51.51-18.27-.47-24.89-6.34Z"/>
  <path class="cls-2" d="M792.6,519.67c2.09,1.5,4.13,3.02,6.43,4.19,3.23,1.12,6.27,2.39,9.35,3.87-2.38,1.01-4.37-.03-7.02,1.38-1.22-.85-2.35-1.7-3.46-2.69-2.78-1.97-5.4-4.06-8.02-6.23l2.71-.52h.01Z"/>
  <path class="cls-2" d="M232.36,525.46c1.6-.64,2.63-1.17,4.37-.67,1.07.86,2.11,1.72,3.14,2.62,4.94,2.34,9.9,4.84,15.15,6.43-.44.62-.66,1.07-1.35,1.42l-2.7-.51c-2.76-1.78-6.84-2.84-9.92-4.23l-2.7-2.4c-2.41-.87-4.15-.75-5.99-2.66h0Z"/>
  <path class="cls-2" d="M440.5,487.89l.14-2.99c1.54,2.48,3.37,4.68,5.02,7.07,2.45,4.46,5.4,8.53,8.42,12.62-8.46-1.26-8.7-11.31-13.57-16.7h-.01Z"/>
  <path class="cls-2" d="M552.32,559.84c1.45-2.86,3.55-6.06,6.07-8.1,3.18-2.57,26-.23,31.32.18-9.7.14-21.19-1.27-30.49,1.59l-.42.39c-1.77,1.71-3.65,5.15-5.7,6.08l-.79-.15h0Z"/>
  <path class="cls-15" d="M553.75,613.34c1.84,1.11,2.62,2.06,3.11,4.18,1.05,4.55,2.17,17.42-.35,21.45-.61.98-.93,1.31-1.93,1.8l-.46-1.51c.39-.72.35-.6.68-1.49,2.35-6.45,1.63-18.22-1.05-24.43Z"/>
  <path class="cls-14" d="M658.65,510.14c6.84-.97,12.53-3.59,18.58-6.85-1.46,3.42-4.25,5.05-7.64,6.36-3.17,1.23-7.16,2.2-10.56,2.41-2.68.41-5.37.74-8.07,1,2.59-2.51,4.25-2.64,7.69-2.92h0Z"/>
  <path class="cls-15" d="M652.75,618.27c4.99,2.75,13.88,17.46,19.89,20.25l1.43,2.33c-.95-.15-1.94-.24-2.82-.66-5.22-2.46-16.58-16.36-18.49-21.92h-.01Z"/>
  <path class="cls-16" d="M626.05,683.63c1.38-4.56,1.78-9.59,2.38-14.31.82,5.88,1.84,12.22-1.88,17.38-2.93,4.07-7.13,6.05-12.03,6.69-3.6.47-7.53.26-11.16.04,5.25-1.02,11.44.72,15.74-3.17,2.84-1.58,4.82-4.24,6.95-6.64h0Z"/>
  <path class="cls-15" d="M411,685.76c5.24-1.94,7.32-6.18,11.48-9.32,1.11-.83,1.75-.92,3.08-.76,1.53,1.28,2.4,2.22,3.17,4.07-.26-.13-.52-.25-.78-.38-1.48-.76-2.7-1.98-3.93-3.07-1.14.67-1.57,2.09-1.92,3.36-.11.4-.19.8-.27,1.2-4.13,4.09-9.54,9.21-15.72,9.38-.85.02-1.54-.32-2.29-.67,2.56-1.12,4.84-2.27,7.18-3.81Z"/>
  <path class="cls-14" d="M334.92,512.96c4.3-.67,8,1.96,12.32,1.53,7.94-.79,15.24-5.62,23.29-5.65-7.73,4.3-21.41,9.46-30.24,6.71-1.88-.58-3.65-1.64-5.37-2.59h0Z"/>
  <path class="cls-15" d="M628.49,704.84c1.07-2.34,2.92-3.2,4.29-5.17,1.15-1.66,1.59-3.77,2.59-5.51.63-1.1,1.14-1.27,2.32-1.56,3.19.69,7.72,4.55,9.45,7.3.61.97,1.2,1.97,1.8,2.95l-1.45-.57c-2.66-1.77-5.51-3.21-8.33-4.7-3.71,2.36-6.66,5.28-10.67,7.25h0Z"/>
  <path class="cls-2" d="M716.39,615.27c5.68,4.1,16.46,20.23,17.49,27,.13.86.11.85.12,1.61.39,1.89.6,3.59.58,5.53-.25,2.52-.68,4.43-1.65,6.78l-.04-4.57c-.57-4.59-.78-10.16-3.05-14.24-2.39-5.61-5.03-10.43-9.06-15.03-.86-1.94-3.3-4.2-4.85-5.58l.45-1.49h0Z"/>
  <path class="cls-7" d="M781.03,504.49c3.24,5.69,6.73,10.77,11.57,15.19l-2.71.52-.31-.1c-1.52-1.37-3.22-3.32-5.46-3.21-1.66.08-2.8.73-3.97,1.83-.59.56-.93.94-1.69,1.29-.7.32-1.04-.09-1.68-.38,1.84-4.8,4.11-9.92,4.25-15.13h0Z"/>
  <path class="cls-3" d="M525.55,655.81c1.16,7.14,1.64,27.32-2.51,32.9-2.23,3-5.78,4.36-9.39,4.78-9.99,1.16-23.35,1.55-31.67-5.27-.59-.48-.98-1.03-1.36-1.67l.41-1.1c.85,1.94,5.79,3.93,7.77,4.78,9.17,3.89,21.53,2.98,30.58-.8,2.08-3.37,3.6-7,5.82-10.31.65-7.78.1-15.53.35-23.32h0Z"/>
  <path class="cls-2" d="M306.51,677.55l.7-.98c1.03.36.63.04,1.15.74,4.92,6.72,13.67,15.09,20.79,19.42,4.1,2.49,8.48,4.12,12.39,6.99-3.19-.2-6.52-2.2-9.62-1.54-7.35-1.69-21-18.55-25.4-24.63h-.01Z"/>
  <path class="cls-9" d="M312.95,336.58c7.11.37,12.08,4.52,16.64,9.58,3.28,3.64,5.8,7.92,8.43,12.03l-.33-1.26c1.99,2.48,2.46,4.56,2.63,7.68,1.62,4.83,6.16,18.94,6.56,23.43l-1.7-.46c-.01-3.01-7.49-23.16-8.97-28.21-1.05-2.32-2.18-4.61-3.39-6.86-2.81-5.31-11.25-11.69-16.7-14.29-1.07-.51-2.12-1.08-3.17-1.64h0Z"/>
  <path class="cls-3" d="M424.57,615.83c-.34-9.84-.32-19.73-.56-29.58-.17-6.98-.77-14.21-.36-21.17.15-2.44.63-5.08,1.44-7.4.61-1.76,1.7-4.6,3.59-5.3,1.33-.49,2.12-.25,3.32.33-3.21,2.06-4.73,3.5-5.63,7.29-1.27,5.36-.48,11.96-.35,17.47-.22,13.14,1.12,27.17-1.23,40.1-2.28-2.3-4.77-4.55-6.2-7.5,2.52,1.35,4.21,3.58,5.97,5.75h.01Z"/>
  <path class="cls-14" d="M575.49,664.01l.53.08c.38,6.34,2.08,12.08,6.95,16.47,1.99,1.79,4.57,2.96,6.34,4.97l.03.94c-.82.74-.41.49-1.15.85,6.35,4.99,22.98,2.79,30.92,2.95-4.3,3.89-10.49,2.15-15.74,3.17l-11.87-.12c-.83-.52-1.89-1.1-2.54-1.83-.67-.74-.78-1.85-1.54-2.67-5.82-6.31-11.45-11.16-11.74-20.47l-.18-4.33h-.01Z"/>
  <path class="cls-14" d="M726.09,563.65c1.45.9,2.28,1.67,3.29,3.04.93,6.8.17,13.33.11,20.12-.68,4.88-1.41,9.8-5.49,13.12-1.01.82-2.23,1.5-3.35,2.18-1.77.07-3.6.17-5.36-.07-2.92-.39-12.99-3.4-15.02-1.74,1.39,2.42,13.16,12.28,16.13,14.96l-.45,1.49c-1.96-1.89-3.85-3.79-6.1-5.35-1.81-2.03-3.97-3.71-6.04-5.46-1.26-1.66-2.78-2.28-4.41-3.48-.98-.72-1.36-1.13-1.55-2.36,1.14-1.73,1.66-1.69,3.59-2.35,1.51-.52,3.37-1.28,4.98-1.21,4.28.2,12.75,5.36,16.66,2.74,1.34-.9,2.33-2.76,2.76-4.27.72-2.57.91-5.33,1.4-7.96,1.6-8.73,3.52-15.12-1.13-23.42l-.02.02Z"/>
  <path class="cls-12" d="M791.18,350.03c2.19-1.36,4.08-3.1,6.26-4.47,5.61-3.54,14-7.09,20.66-7.48,4.07-.24,6.61.78,9.66,3.41.03,1.71.38,4.01-.49,5.53-1.61-1.7-1.41-4.57-3.31-5.98l-.84.4c.38,2.5,3.09,3.79,3.46,6.35l-.66.7c-.14-.29-.27-.59-.4-.88-.64-1.35-1.5-2.18-2.79-2.93-2.28-1.41-3.5-1.65-6.12-1.51-6.7-1.91-22.13,11.09-26.21,8.54.2-.77.28-1.01.78-1.67h0Z"/>
  <path class="cls-3" d="M319.1,660.44c-8.02-12.81-11.85-29.1-10.15-44.16.16,5.15,1.01,10.17,1.82,15.25,1.51,7.71,2.79,16.77,7.41,23.37,2.47,4.82,5.96,9.96,9.97,13.61,2.51,6.15,16.8,14.82,23.06,17.47,9.86,4.17,21.02,5.97,31.7,5.38,1.59.29,2.83.58,4.26,1.34-3.42.8-7.05,1.25-10.56,1.21-18.56-.19-35.9-9.12-48.69-22.05-2.17-3.66-5.44-8.88-8.82-11.42h0Z"/>
  <path class="cls-15" d="M732.3,611.77c4.51-7.76,13.86-26.81,11.79-35.4-1.18-4.93-1.75-10.99-2.25-16.06l1.11-1.08c.24,1.13.47,2.25.75,3.37,3.02,11.81,1.23,22.76-2.31,34.07-1.45,4.64-3.14,9.12-4.77,13.69l-.34,1.65c-.38,1.53-.37,2.44.47,3.83,1.23,2.03,2.92,3.76,4.11,5.8,4.68,8.05,7.16,20,7.76,29.17.07,13.08-6.41,28.84-15.68,38.09-3.73,3.72-7.86,7.06-11.93,10.4-3.02,1.44-6.68,3.19-9.1,5.51-1.6.9-3.21,1.92-4.93,2.56.49-.78,22.59-17.16,25.47-19.33,6.67-5.05,13.72-23.33,14.95-31.56,1.4-9.38-2.46-24.69-6.92-32.96-2.28-4.23-5.32-7.91-8.18-11.75h0Z"/>
  <path class="cls-11" d="M382.48,525.83c5.53,2.41,11.03,4.64,16.78,6.49,2.46.79,6.39,1.26,8.57,2.38l-1.47,1.34c-9.42-1.35-17.9-3.3-27.54-2.49-11.3.95-22.97,4.99-34.25,4.09-.52,1.25-.67,1.72-2,2.32-1.06.48-2.85.26-3.94.09-4.12-.58-7.68-2.74-10.33-5.89l1.61-.68c4.21-.88,9.94,2.09,14.58,1.97,13.57-.35,25.55-4.57,37.98-9.63h.01Z"/>
  <path class="cls-15" d="M328.31,534.18l1.61-.68c2.51,2.64,11.06,3.97,14.66,4.15-.52,1.25-.67,1.72-2,2.32-1.06.48-2.85.26-3.94.09-4.12-.58-7.68-2.74-10.33-5.89h0Z"/>
  <path class="cls-11" d="M447.73,525.94c10.35,7.41,11.38,7.87,23.4,10.53,5.01-.06,9.91-.86,14.82-1.75,6.66-1.53,12.2-2.95,17.86-6.95l2.18,4.95c-5.52.82-10.68,2.5-16.05,3.95-5.65,3.33-16.59,2.32-22.79.72-.17-.04-.35-.1-.52-.15-9.47-2.24-18.45-3.23-28.16-1.71-4.66.73-9.54,2.17-14.28,1.92-2.42-.7-4.92-.08-7.29-.89,1.18-.68,3.72-.41,5.18-.74l-.92-.52c3.76-1.35,7.87-1.84,11.7-3.15,5.11-1.74,9.84-4.28,14.85-6.21h.02Z"/>
  <path class="cls-6" d="M427.58,701.55c11.32,7.74,24.72,10.57,38.36,7.99,5.05-.95,9.35-3.23,13.79-5.72,9.08,4.8,16.74,5.87,26.91,6.37.29.16.55.38.86.47,1.8.52,7.88.56,10.48.98l.66-.61-.21,1.02,1.04-.07c-.03.24-.33.36-.5.54-5.38.13-11.26-.14-16.58.53-7.89-.21-14.68-2.48-21.99-5.2-4.51,2.98-8.93,4.75-14.25,5.6-15.75,2.53-27.28.13-40.04-9.07.56-.88.99-1.89,1.47-2.83h0Z"/>
  <path class="cls-12" d="M643.68,676.46c-1.64-3.31-4.37-5.98-5.79-9.46-2.49-6.13-1.44-14.98,1.19-20.84,1.78-3.97,4.51-7.61,8.78-9.04,4.71-1.58,9.56-.26,13.82,1.91.08.23.14.47.22.7.44,1.24,1.42,2.2,2.28,3.17l.13,1.12c-1.13.42-1.18.23-2.23-.25-.64-.29-1.17-.65-1.76-1.03-2.57-1.65-6-2.42-9.02-1.79-1.17.24-1.82.54-2.65,1.38-3.72,2.77-5.81,6-6.41,10.67-.82,6.35,1.11,11.76,4.36,17.09.24,2.06.71,3.04,2.34,4.36.97.79,2.01,1.47,2.94,2.32,3.5,1.96,7.35,3.35,10.91,5.25-.24.03-.48.07-.72.1-6.61.78-11.27-2.38-16.17-6.26l-2.22.6h0Z"/>
  <path class="cls-2" d="M768.04,523.32c3.39-3.43,7.38-7.04,9.36-11.52,1.07-2.43,1.66-5.05,2.71-7.5l.93.18c-.14,5.21-2.41,10.33-4.25,15.13-1.82,2.38-4.32,3.86-6.05,6.31-.77,1.95-2.01,3.34-3.34,4.92-3.46,2.08-7.7,4.65-10.65,7.38-3.77-.09-7.54.74-11.23,1.42-15.52,2.84-18.75,1.72-32.95-4.43,19.22,2.92,39.52-.49,55.48-11.9h0Z"/>
  <path class="cls-5" d="M341.53,703.73c5.39,2.86,11.48,4.01,17.44,5.12,9.86,1.84,20.35,2.57,30.33,1.32,6.66-.84,14.03-2.48,20.4-4.58,4.45-1.46,9.17-3.87,13.78-4.6,1.48-.23,2.71.1,4.11.56-.47.94-.9,1.94-1.47,2.83-6.29,2.15-12.55,4.73-18.97,6.47-18.49,5.03-41.36,5.85-59.56-.8-5.49-2.01-10.62-4.98-15.68-7.87,3.11-.65,6.43,1.35,9.62,1.54h0Z"/>
  <path class="cls-16" d="M541.52,661.85c1.9-.07,4.06-.04,5.89-.57,4.07-1.18,9.61-5.85,13.73-5.34l.67,1.59c-.26,1.98-.35,3.92-1.38,5.67-2.19.49-4.18.9-6.45.93-2.65.68-5.21,1.31-7.93,1.67.08,10.37,2.59,28.73-5.18,36.6-.28.28-.56.55-.85.82-7.95,7.79-16.72,10.49-27.66,10.41-3.18-.02-6.86.16-9.96-.57,5.32-.67,11.2-.4,16.58-.53.17-.18.47-.29.5-.54l-1.04.07.21-1.02-.66.61c-2.6-.42-8.69-.46-10.48-.98-.32-.09-.58-.31-.86-.47,14.58-.01,17.64-.38,29.33-9.61.98-2.23,3.13-3.98,4.07-6.39,2.41-6.23,1.48-25.08,1.49-32.34h-.02Z"/>
  <path class="cls-2" d="M553.98,664.13c3.03-1.91,5.93-3.46,7.83-6.61-.26,1.98-.35,3.92-1.38,5.67-2.19.49-4.18.9-6.45.93h0Z"/>
  <path class="cls-3" d="M535.97,700.59c.16-.06.32-.11.47-.18.84-.38,1.42-.95,2.1-1.56l.7.18c-.71,2.3-4.98,5.81-7.18,7.02-3.69,2.03-9.14,2.85-11.9,6.29,3.09-.75,6.73-1.3,9.59-2.66,3.55-1.69,6.35-5.61,10.26-6.47-7.95,7.79-16.72,10.49-27.66,10.41-3.18-.02-6.86.16-9.96-.57,5.32-.67,11.2-.4,16.58-.53.17-.18.47-.29.5-.54l-1.04.07.21-1.02-.66.61c-2.6-.42-8.69-.46-10.48-.98-.32-.09-.58-.31-.86-.47,14.58-.01,17.64-.38,29.33-9.61h0Z"/>
  <path class="cls-11" d="M170.04,528.47c2.26,1.35,4.67,2.35,7.14,3.23,2.72.94,5.49,1.71,8.31,2.3,2.82.59,5.66,1,8.54,1.22,15.06,1.25,25.02-3.48,38.34-9.77,1.84,1.91,3.57,1.79,5.99,2.66l2.7,2.4-.53-.06c-.26-.03-.52-.05-.78-.08-1.05-.12-1.78-.24-2.8.11-4.09,1.39-10.54,7.47-17.12,9.79-11.33,3.99-27.14,3.17-37.89-2.29-4.38-2.22-8.03-5.54-12.61-7.73l.73-1.8-.02.02Z"/>
  <path class="cls-12" d="M578.65,336.44c10.25-2.53,33.84-.57,45.26-.49,8.9.06,18.81-1.05,27.59.29,3.13.48,6.34,1.99,9.15,3.41.09,2.87,1.17,8.98.16,11.51l-1.78.02c-.44-2.38.07-7.3-1.81-8.95-.77-.68-2.12-.99-3.12-.78-.15.03-.3.1-.45.15-8.06-1.16-16.53-.57-24.68-.6-16.16-.06-32.24,0-48.39.33-1.24-.16-2.43.05-3.57.55-2.79,1.24-3.78,4.5-4.83,7.11-.58-.58-.89-1.09-1.22-1.83l-.35-.82.02.38-.11-.18c.05-4.52,5.06-6.49,7.66-9.53.16-.18.31-.37.46-.56h0Z"/>
  <path class="cls-11" d="M594.41,532.81c21.93.88,43,2.07,64.83-1.29,7.02-1.08,14.7-2.14,21.36-4.65,3.14-1.18,6.89-4.31,10.21-3.9l.65.08c.55.07,1.1.16,1.66.26l.11.69c-1.99,2.13-5.13,3.35-7.7,4.68-3.43,1.79-7.11,4.08-10.78,5.31-6.56,2.22-18.25,2.7-25.34,2.93-7.25.24-14.42-1.12-21.64-1.53-10.07-.58-20.19-.24-30.27-.83-6.31.17-12.59-1.04-18.87-.88-10.65.27-20.75,2.03-31.51,1.5,5.77-.94,11.22-2.07,16.65-4.34,3.6-1.51,7.03-3.4,10.73-4.68.17-.06.34-.11.51-.17,4.99,2.77,10.73,5.83,16.52,6.29,1.06.08,1.86.16,2.88.53h0Z"/>
  <path class="cls-15" d="M309.1,515.42c1.28.47,1.87.97,2.84,1.88.28,1.9-.95,2.64-1.14,4.46l.9.5-.47,1.54h.56c1.54-.01,3.49-.13,4.68,1.02.71.68.99,1.25,1.39,2.12-1.29-1.04-1.94-1.87-3.61-2.07-4.48,3.2-7.86,7.71-12.17,11.1-8.46,6.65-24.61,9.49-35.06,7.85-5.34-.84-9.77-2.5-13.61-6.34l.15-.25.92.07.03-.43-.5-.21c-1.23-.52-2.13-.89-3.05-1.91l2.7.51c.69-.35.91-.8,1.35-1.42,2.33.46,4.68,1.02,7.03,1.35,1.68.15,3.35.21,5.03.23,12.66.16,25.16-4.43,34.24-13.52.81-.81,1.61-1.61,2.41-2.43l.67.61c.7.04,1.23.25,1.84-.17,1.47-1.02,2-2.77,2.4-4.42l.45-.07h.02Z"/>
  <path class="cls-11" d="M308.64,515.5l.45-.07c.8,1.58,1.26,2.55.71,4.35-1.95,6.47-10.6,12.65-16.44,15.62-7.78,3.96-17.11,5.95-25.7,3.98-3.36-.77-6.75-2.1-10.13-2.64-1.36-.39-2.59-.9-3.87-1.48.69-.35.91-.8,1.35-1.42,2.33.46,4.68,1.02,7.03,1.35,1.68.15,3.35.21,5.03.23,12.66.16,25.16-4.43,34.24-13.52.81-.81,1.61-1.61,2.41-2.43l.67.61c.7.04,1.23.25,1.84-.17,1.47-1.02,2-2.77,2.4-4.42h.01Z"/>
  <path class="cls-12" d="M108.21,387.63c-.14-.1-.28-.21-.42-.31-.53-.38-.98-.66-1.36-1.2-2.6-3.73-3.67-11.51-2.53-15.92,2.01-7.78,13.25-13.54,19.82-17.27,5.76-3.26,14.05-7.96,20.86-8.04,2.31-.03,4.88.9,7.1,1.51,1.9,2.56,3.93,4.85,6.14,7.15-1.72,6.05.3,8.22,1.51,13.86,2.29,4.51,7.33,13.16,7.3,18.12-.97-.1-.57.1-1.27-.75-1.65-1.99-2.56-4.47-4.19-6.49-.75-1.75-1.68-3.44-2.54-5.14-2.79-5.74-6.51-18.8-11.28-22.34-7.36-1.94-19.93,6.16-26.19,9.8-3.8,2.21-11.38,6.38-12.94,10.66-1.32,3.6,1.56,8.92,2.64,12.35.56.83,1.05,1.46,1.37,2.41l1.64,2c1.44,2.65,2.8,5.42,4.4,7.97.83,1.5,1.79,3.01,2.48,4.58,3.68,11.3,10.75,20.72,15.8,31.35.69.74.99,1.31,1.34,2.26l-.06.42-.46-.63c1.16,3.52,2.28,7.38,4.02,10.65,1.41,2.64,5.19,7.1,5.48,9.95.06.6-.24,1.61-.33,2.23-7.28-11.48-13.56-23.73-20.33-35.53-4.1-7.15-9.1-14.17-12.68-21.56-.7-1.44-.97-2.68-1.01-4.28-1.5-2.56-3.1-5.1-4.31-7.81Z"/>
  <path class="cls-12" d="M403.88,333.77c8.7-2.21,25.15-2.92,34.02-.91,5.73.75,10.49,2.71,15.9,4.59,4.67,1.47,12.52,3.54,15.65,7.38,2.47,1.85,9.36,7.66,11.75,8.65l1.64,2.39-.88.28c-3.24-3.04-12.28-11.45-16.73-11.63-.68-.03-.56.08-1.18.57,3.45,5.11,17.97,13.26,18.26,19.28l-.36.83c-.87-1.28-1.76-2.54-2.69-3.78-9.95-13.09-25.56-20.31-41.53-22.9-3.87-.63-7.86-.46-11.79-1.01-4.61-.12-9.1.15-13.68.5-9.55,1.82-27.09,4.58-34.25,11.41-.18,1.02-.36,2.04-.56,3.06-1.96,9.86,2.09,20.37,1.6,30.3-.82,7.79.16,15.71-.66,23.5l-.25-2.8c-.62,7.66.24,15.43.49,23.1.13,4.02-.26,8.06-.09,12.08-.45,6.65-.38,13.24-.31,19.9-.16-.32-.32-.64-.5-.95-.34-.59-.62-1.03-.88-1.68-.08-.21-.16-.42-.25-.64-.26,1.51-.4,2.84-1.26,4.15l-.88-1.03c.2-16.73-.54-33.47-.05-50.22-1.17-8.46-.82-17.93-.99-26.5-1.09-6.32-1.31-13.06-1.91-19.46-.47-3.72-.71-7.43.53-11.04,1.94-5.64,6.44-8.24,11.54-10.58,6.45-3.28,13.26-5.17,20.27-6.85h.03Z"/>
  <path class="cls-1" d="M371.53,362.23c-.47-3.72-.71-7.43.53-11.04,1.94-5.64,6.44-8.24,11.54-10.58-1.02,1.93-1.83,2.69-3.64,3.86-2.29,1.49-4.9,2.95-5.42,5.87-.33,1.89-.23,3.92-.17,5.83-1.15,3.57-.13,7.28-.06,10.93l.21,3.08c1.22,6.43,1.35,12.99.74,19.48l-.13-.92c-.35,6.51.17,12.98-.71,19.44-1.17-8.46-.82-17.93-.99-26.5-1.09-6.32-1.31-13.06-1.91-19.46h.01Z"/>
  <path class="cls-1" d="M202.38,356.76c-.45-3.88.81-9.21,3.08-12.4,2.09-2.95,5.26-4.71,8.79-5.31,7.05-1.2,19.45,3.07,25.16,7.19,2.53,4.73,9.01,6.79,11.96,11.61.99,1.61,1.4,3.6,2.19,5.32-.58,2.9-.93,5.76-2.76,8.17-.51.27-.97.58-1.54.72.39-2.07.93-4.22,1.09-6.31.22-2.86-1.53-5.38-3.4-7.36-7.86-8.27-19.74-14.26-31.22-14.46-2.47.92-4.14,1.65-5.28,4.14-5.77,12.62-14.56,69.32-25.53,73.88-1.18.49-2.27.53-3.42-.1-1.77-.99-2.98-3.21-3.91-4.94-1.23-2.28-16.19-35.92-16.41-37.38-.05-.34-.02-.9,0-1.21,1.63,2.01,2.54,4.49,4.19,6.49.71.85.31.65,1.27.75.03-4.96-5.01-13.6-7.3-18.12-1.21-5.64-3.23-7.81-1.51-13.86,4.49,4.8,8.39,9.69,11.59,15.45,2.64,4.75,7.79,15.47,9.57,20.46.84,2.36,1.08,5.06,2.09,7.33.66,1.48,2.05,2.52,2.81,3.94,1.15,2.16,1.4,6.33,3.82,7.44,1.11-.77,1.39-1.75,1.83-2.97,1.9-5.35,2.48-11.21,3.77-16.73,1.19-5.1,2.9-10.06,4.11-15.15.6-2.52,1.12-8.32,2.62-10.12.35-.43.83-.73,1.25-1.09.35-1.79.72-3.58,1.1-5.36v-.02Z"/>
  <path class="cls-12" d="M202.38,356.76c-.45-3.88.81-9.21,3.08-12.4,2.09-2.95,5.26-4.71,8.79-5.31,7.05-1.2,19.45,3.07,25.16,7.19,2.53,4.73,9.01,6.79,11.96,11.61.99,1.61,1.4,3.6,2.19,5.32-.58,2.9-.93,5.76-2.76,8.17-.51.27-.97.58-1.54.72.39-2.07.93-4.22,1.09-6.31.22-2.86-1.53-5.38-3.4-7.36-7.86-8.27-19.74-14.26-31.22-14.46l-3.56-.34c-6.72,5.47-5.04,15.77-9.07,19.13l-.3-.12c.09-.13.19-.27.28-.4,2.99-4.44.89-8.96,4.51-14.12.67-.95.99-1.85,1.36-2.94l-.6-1.66.18.47c-.13.11-.27.2-.39.33-3.24,3.46-3.92,15.94-6.55,18.34l-.33-.49c.35-1.79.72-3.58,1.1-5.36h.02Z"/>
  <path class="cls-1" d="M720.79,622.34c4.03,4.6,6.67,9.42,9.06,15.03,2.27,4.08,2.48,9.65,3.05,14.24l.04,4.57c-.36,3-.78,5.99-1.24,8.97-.59,1.98-.96,4-2.45,5.5l-1.31.4c.16,2.17-.72,3.55-2.18,5.21-.96,1.09-9.38,7.99-10.53,8.59-11.38,5.92-20.68,10.16-33.91,10.2-.73-.72-1.36-1.17-2.37-1.43-7.93-2.02-14.56-1.93-22.93-4.88-.82-.5-1.57-1.03-2.32-1.62-3.3-2.54-8.4-5.97-8.95-10.27l-1.06-.4,2.22-.6c4.91,3.88,9.56,7.04,16.17,6.26.24-.03.48-.07.72-.1-3.57-1.9-7.41-3.29-10.91-5.25-.93-.84-1.97-1.53-2.94-2.32-1.63-1.32-2.09-2.31-2.34-4.36l.37.38c7.13,7.27,15.37,10.69,25.51,10.71,10.29.03,23.95-1.55,31.54-9.24l.4-.42c3.13-.45,4.61-2.43,6.62-4.69,10.57-11.89,8.31-20.59,7.43-35.01l.72,1.46c.49,1.9,1.02,3.81,1.44,5.73-.17,1.44-.2,3.43.58,4.69l.6-.39c1.21-3.68.92-6.05.16-9.73l-.09-.84c-1.13-3.72-.41-6.74-1.09-10.4h0Z"/>
  <path class="cls-14" d="M729.85,637.37c2.27,4.08,2.48,9.65,3.05,14.24l.04,4.57c-.36,3-.78,5.99-1.24,8.97-.59,1.98-.96,4-2.45,5.5l-1.31.4c.59-3.37,2.25-6.5,2.62-9.98.81-7.61-.89-15.54-.72-23.17l.02-.54h-.01Z"/>
  <path class="cls-4" d="M901.84,353.19c1.72.96,3.41,1.98,4.88,3.31,2.66,2.42,9.66,11.44,10.6,14.78,4.54,16.15-6.76,34.04-14.65,47.31-2.67,4.5-5.42,9.05-8.5,13.28-4.7,6.45-11.86,13.48-14.82,20.81-4.83,11.96,2.62,44.02-2.09,55.62-1.34,3.31-4.27,4.45-7.53,5.29-10.64,2.73-34.52,2.88-43.78-2.88-3.61-2.24-5.24-5.59-8.05-8.51-1.13-1.17-2.6-2.09-3.6-3.37-.7-.91-1.05-2.32-1.26-3.43-1.61-8.61,3.31-33.89,4.63-44.16.33-2.54,1.36-6.62.73-9.04-.99-3.79-8.42-15.55-10.99-18.83-1.24-5.71-9.36-13.61-9.36-18.87,2.86,2.83,7.66,10.42,10.03,11.58.26.13.53.24.8.36,3.99,3.35,6.46,10.79,9.3,15.29,1.27,2.02,2.94,3.7,4.23,5.68.49.76.63,1.51.77,2.38.04.25.09.5.12.75,1.54,10.69-2.52,30.02-4.3,40.88.4,5.54-.57,9.66,2.49,14.64,4.62.94,12.58.61,16.15,3.53,6.28.39,13.66.95,19.8-.53,2.33-.56,4.41-1.27,5.53-3.54,4.66-9.47-1.65-41.64,2.78-54.77,1.92-5.68,9.44-13.55,13.03-18.68,3.65-5.23,6.98-10.73,10.39-16.12,3.69-1.57,5.92-8.94,7.48-12.58,4.21-2.74,4.29-7.46,7.42-10.68l.72-1.13.19.15c.51-.41.59-.43,1.05-1.02,2.91-3.79,1.65-10,.9-14.3.01-1.23.1-2.47.16-3.7.04-.72.11-1.44.04-2.16-.17-1.53-1.46-2.43-2.54-3.36-1.27-1.3-1.99-2.32-2.74-3.98h-.01Z"/>
  <path class="cls-2" d="M818.98,481.42c.4,5.54-.57,9.66,2.49,14.64,4.62.94,12.58.61,16.15,3.53-3.69.06-7.9.06-11.54-.5-2.64-.41-5.28-1.35-6.88-3.62-2.72-3.87-1.14-9.79-.22-14.06h0Z"/>
  <path class="cls-8" d="M656.81,612.99c-4.58-8.94-7.85-18.19-5.24-28.32,2.45-9.52,7.92-18.44,16.52-23.5,11.89-6.99,27.59-6.3,40.44-2.64,2.04.58,5.32,1.61,6.15,3.85,1.89,5.12-.38,22.32-2.57,27.82-5.85-.15-10.91-3.73-17.12-3.77-2.9.69-5.78,1.32-7.56,3.95-.96,1.43-1.36,3.04-1.02,4.73.77,3.82,4.76,6.77,7.86,8.79.11.08.24.13.36.19.49-.76.45-1.13,1.42-1.32,2.82-.53,5.2,2.29,7.75,3.18,2.07,1.75,4.23,3.43,6.04,5.46,2.25,1.56,4.14,3.46,6.1,5.35,1.55,1.38,3.98,3.65,4.85,5.58.69,3.66-.04,6.68,1.09,10.4l.09.84c.76,3.68,1.05,6.05-.16,9.73l-.6.39c-.78-1.25-.75-3.25-.58-4.69-.42-1.92-.95-3.82-1.44-5.73l-.72-1.46c.89,14.43,3.14,23.12-7.43,35.01-2.01,2.26-3.48,4.24-6.62,4.69l-.4.42c-7.6,7.7-21.26,9.27-31.54,9.24-10.13-.02-18.38-3.45-25.51-10.71l-.37-.38c-3.25-5.33-5.18-10.74-4.36-17.09.6-4.67,2.69-7.9,6.41-10.67.84-.84,1.48-1.13,2.65-1.38,3.01-.63,6.45.14,9.02,1.79.59.38,1.12.74,1.76,1.03,1.05.47,1.1.66,2.23.25l-.13-1.12c-.86-.97-1.84-1.93-2.28-3.17-.08-.23-.15-.47-.22-.7,2.96,1.56,4.55,4.31,7.19,6.27,2.49.34,4.65.72,7.15.18l.85-.74c-.25-1.61-1.57-2.85-2.82-3.89l-1.43-2.33c-6-2.79-14.89-17.49-19.89-20.25-.35-1.22-.54-1.9-1.47-2.79.31-4.44-3.69-8.99-2.93-13.71.16-1,0-.63.91-1.26l.98.54c.1.52.2,1.04.33,1.55.75,3.01,2.52,8.49,5.44,9.99.26.14.54.26.8.38l.02.02Z"/>
  <path class="cls-12" d="M694.63,604.08c.49-.76.45-1.13,1.42-1.32,2.82-.53,5.2,2.29,7.75,3.18,2.07,1.75,4.23,3.43,6.04,5.46,2.25,1.56,4.14,3.46,6.1,5.35,1.55,1.38,3.98,3.65,4.85,5.58.69,3.66-.04,6.68,1.09,10.4l.09.84c.76,3.68,1.05,6.05-.16,9.73l-.6.39c-.78-1.25-.75-3.25-.58-4.69-.42-1.92-.95-3.82-1.44-5.73l-.72-1.46c-2.65-7.13-7.15-12.46-12.95-17.2-3.97-3.2-7.34-6.89-10.89-10.53Z"/>
  <path class="cls-12" d="M651.28,615.49c.31-4.44-3.69-8.99-2.93-13.71.16-1,0-.63.91-1.26l.98.54c.1.52.2,1.04.33,1.55.75,3.01,2.52,8.49,5.44,9.99.26.14.54.26.8.38,2.22,2.95,4.38,6.37,7.04,8.92,6.64,6.39,21.36,14.31,19.47,24.91-.26,1.47-1.02,2.6-2.26,3.43-2.51,1.67-9.17,2.44-12.13,1.79-.69-.15-.75-.23-1.28-.54l-.26-1.21c-2.51-1.18-4.64-2.26-6.42-4.45-.06-.09-.09-.19-.16-.26-3.31-3.31-7.78-3.39-12.14-3.26.84-.84,1.48-1.13,2.65-1.38,3.01-.63,6.45.14,9.02,1.79.59.38,1.12.74,1.76,1.03,1.05.47,1.1.66,2.23.25l-.13-1.12c-.86-.97-1.84-1.93-2.28-3.17-.08-.23-.15-.47-.22-.7,2.96,1.56,4.55,4.31,7.19,6.27,2.49.34,4.65.72,7.15.18l.85-.74c-.25-1.61-1.57-2.85-2.82-3.89l-1.43-2.33c-6-2.79-14.89-17.49-19.89-20.25-.35-1.22-.54-1.9-1.47-2.79v.03Z"/>
  <path class="cls-1" d="M672.63,638.52c2.08.67,3.65,1.21,4.76,3.23.71,1.3.89,2.75,1.07,4.19-2.09,2.08-3.42,2.16-6.28,2.27-3.71-.2-7.81-2.96-11.22-2.36-.06-.09-.09-.19-.16-.26-3.31-3.31-7.78-3.39-12.14-3.26.84-.84,1.48-1.13,2.65-1.38,3.01-.63,6.45.14,9.02,1.79.59.38,1.12.74,1.76,1.03,1.05.47,1.1.66,2.23.25l-.13-1.12c-.86-.97-1.84-1.93-2.28-3.17-.08-.23-.15-.47-.22-.7,2.96,1.56,4.55,4.31,7.19,6.27,2.49.34,4.65.72,7.15.18l.85-.74c-.25-1.61-1.57-2.85-2.82-3.89l-1.43-2.33h0Z"/>
  <path class="cls-8" d="M858.55,361.43c.23-4.3-.17-8.51.97-12.74.78-2.89,2.27-5.78,5.02-7.24,3.21-1.7,6.74-.84,10.02.12,4.41,1.15,24.18,9.05,27.29,11.61.75,1.66,1.47,2.68,2.74,3.98,1.08.93,2.38,1.84,2.54,3.36.08.72,0,1.44-.04,2.16-.06,1.23-.15,2.47-.16,3.7.75,4.3,2.01,10.51-.9,14.3-.46.59-.54.62-1.05,1.02l-.19-.15-.72,1.13c-3.13,3.21-3.21,7.94-7.42,10.68-1.56,3.65-3.79,11.01-7.48,12.58-3.41,5.39-6.74,10.9-10.39,16.12-3.58,5.13-11.11,12.99-13.03,18.68-4.43,13.14,1.88,45.3-2.78,54.77-1.12,2.27-3.21,2.98-5.53,3.54-6.14,1.48-13.52.92-19.8.53-3.57-2.93-11.53-2.59-16.15-3.53-3.06-4.98-2.09-9.1-2.49-14.64,1.79-10.85,5.84-30.19,4.3-40.88-.04-.25-.08-.5-.12-.75-.14-.87-.27-1.62-.77-2.38-1.28-1.98-2.96-3.66-4.23-5.68-2.84-4.5-5.31-11.93-9.3-15.29-3.61-6.12-7.09-12.31-10.43-18.58-4.24-7.51-13.31-24.62-15.13-32.38l1.37-4.92c6.9-5.74,15.61-10.19,23.79-13.87,2.74-1.23,5.54-2.04,8.16-3.54,2.61-.14,3.84.1,6.12,1.51,1.29.76,2.14,1.59,2.79,2.93.14.29.27.59.4.88l.66-.7c-.37-2.56-3.08-3.85-3.46-6.35l.84-.4c1.9,1.41,1.7,4.27,3.31,5.98.86-1.52.52-3.82.49-5.53,1.4,1.59,2.71,3.17,3.9,4.92,3.94,1.84,5.77,7.07,7.18,10.96,2.27,6.27,5.24,23.91,8.52,27.58,1.15.07,1.01-.12,1.84-.82.03-.18.05-.36.1-.53.76-2.85,5.28-11.12,7.63-12.4l.03-1.19c.8-2.94,1.35-5.53,1.59-8.57l-.03.02Z"/>
  <path class="cls-2" d="M899.93,358.58c1.58,1.03,2.83,2.06,4.11,3.45l.41.83.98,1.46c.43,6.18.9,9.03-1.21,15.06-.07,1.1-.18,2.21-.16,3.31-3.13,3.21-3.21,7.94-7.42,10.68-1.56,3.65-3.79,11.01-7.48,12.58,1.45-4.55,3.88-9.06,5.73-13.5,3.95-9.46,6.48-18.95,7.9-29.1-1.16-1.53-2.02-3.05-2.86-4.78h0Z"/>
  <path class="cls-1" d="M904.45,362.85l.98,1.46c.43,6.18.9,9.03-1.21,15.06-.07,1.1-.18,2.21-.16,3.31-3.13,3.21-3.21,7.94-7.42,10.68,2.14-5.94,4.48-11.65,6.09-17.77,1.19-4.31,1.84-8.25,1.72-12.74Z"/>
  <path class="cls-1" d="M858.55,361.43c.23-4.3-.17-8.51.97-12.74.78-2.89,2.27-5.78,5.02-7.24,3.21-1.7,6.74-.84,10.02.12,4.41,1.15,24.18,9.05,27.29,11.61.75,1.66,1.47,2.68,2.74,3.98,1.08.93,2.38,1.84,2.54,3.36.08.72,0,1.44-.04,2.16-.06,1.23-.15,2.47-.16,3.7.75,4.3,2.01,10.51-.9,14.3-.46.59-.54.62-1.05,1.02l-.19-.15-.72,1.13c-.02-1.1.09-2.21.16-3.31,2.11-6.03,1.64-8.88,1.21-15.06l-.98-1.46-.41-.83c-1.28-1.39-2.53-2.42-4.11-3.45-7.94-3.9-16.12-7.44-24.25-10.92-2.72-.53-5.43-1.38-8.19-.77-2.11,1.47-2.83,3.53-3.25,6.02-.63,3.75-.64,7.63-1.18,11.41-1.24,8.67-5.08,20.86-12.49,26.17-1.38.99-2.55,1.46-4.19,1.85-1.75.1-2.59.19-3.96-.94-5.59-2.4-9.06-11.27-11.52-16.49-1.27-3.27-2.4-6.49-3.06-9.94-.64-1.82-.78-4.21-1.08-6.14-.78-5.07-1.83-9.51-4.03-14.16,1.29.76,2.14,1.59,2.79,2.93.14.29.27.59.4.88l.66-.7c-.37-2.56-3.08-3.85-3.46-6.35l.84-.4c1.9,1.41,1.7,4.27,3.31,5.98.86-1.52.52-3.82.49-5.53,1.4,1.59,2.71,3.17,3.9,4.92,3.94,1.84,5.77,7.07,7.18,10.96,2.27,6.27,5.24,23.91,8.52,27.58,1.15.07,1.01-.12,1.84-.82.03-.18.05-.36.1-.53.76-2.85,5.28-11.12,7.63-12.4l.03-1.19c.8-2.94,1.35-5.53,1.59-8.57h-.01Z"/>
  <path class="cls-14" d="M827.84,364.97c.62.96,1.14,1.86,1.62,2.89.56,1.19,1.32,1.94,2.28,2.81l-.09-.51c1.46,1.7,1.87,3.46,2.44,5.55,1.28,3.76,2.7,7.32,5.01,10.58.92,1.91,2,3.44,3.32,5.09-5.59-2.4-9.06-11.27-11.52-16.49-1.27-3.27-2.4-6.49-3.06-9.94v.02Z"/>
  <path class="cls-14" d="M831.66,346.4c3.94,1.84,5.77,7.07,7.18,10.96,2.27,6.27,5.24,23.91,8.52,27.58,1.15.07,1.01-.12,1.84-.82,0,1.35-.09,2.69-.93,3.75l-.99-.2c-.81-.74-1.58-1.36-2.03-2.39-.37-.85-.55-.8-1.34-1.29l-.5-.53c-.02-2.84-1.28-5.69-1.94-8.45-1.06-4.42-1.58-9.3-3.09-13.57-1.81-5.11-4.49-9.7-6.56-14.65l-.16-.38h0Z"/>
  <path class="cls-12" d="M858.55,361.43c.23-4.3-.17-8.51.97-12.74.78-2.89,2.27-5.78,5.02-7.24,3.21-1.7,6.74-.84,10.02.12,4.41,1.15,24.18,9.05,27.29,11.61.75,1.66,1.47,2.68,2.74,3.98,1.08.93,2.38,1.84,2.54,3.36.08.72,0,1.44-.04,2.16-.06,1.23-.15,2.47-.16,3.7.75,4.3,2.01,10.51-.9,14.3-.46.59-.54.62-1.05,1.02l-.19-.15-.72,1.13c-.02-1.1.09-2.21.16-3.31,2.11-6.03,1.64-8.88,1.21-15.06l-.98-1.46-.41-.83c-1.28-1.39-2.53-2.42-4.11-3.45-7.94-3.9-16.12-7.44-24.25-10.92-1.57-1.47-4.13-3.04-6.33-3.05-1.28,0-3.06.5-3.93,1.44-.78.83-1.41,2.01-2.02,2.97-2.25,4.24-1.07,9.68-2.63,14.08l-.75,6.21c-1.41,6.03-3.81,11.82-7.77,16.66l-2.05.39c1.28-5.08,5.23-9.63,6.73-15.18l.03-1.19c.8-2.94,1.35-5.53,1.59-8.57v.02Z"/>
  <path class="cls-8" d="M215.74,343.92c11.48.2,23.36,6.19,31.22,14.46,1.88,1.97,3.63,4.5,3.4,7.36-.16,2.09-.7,4.24-1.09,6.31-2.27,5.77-4.5,11.54-6.71,17.33-1.92,5.93-4.04,12.09-6.66,17.75-3,8.94-12.08,28.19-13.28,35.85l-4.91,11.84c-2.63,9.28-6.05,18.27-8.25,27.69l-1.83,5.98c-.35.93-.71,1.86-1.04,2.8-.77,2.14-1.53,3.51-3.24,5.08-4.67,4.29-14.99,4.73-21.09,4.29-4.16-.3-7.17-1.78-9.83-5-5.98-7.25-8.66-17.99-12.84-26.37-1.49-2.98-3.41-5.74-5-8.66l-16.28-29.46c-4.07-7.36-12.31-24.49-17.31-30.27-.09-.1-.18-.2-.27-.3-.68-1.57-1.64-3.08-2.48-4.58-1.6-2.55-2.96-5.32-4.4-7.97l-1.64-2c-.32-.95-.81-1.58-1.37-2.41-1.08-3.43-3.96-8.74-2.64-12.35,1.57-4.29,9.14-8.45,12.94-10.66,6.26-3.64,18.83-11.74,26.19-9.8,4.78,3.54,8.49,16.6,11.28,22.34.86,1.7,1.79,3.39,2.54,5.14,0,.31-.04.87,0,1.21.22,1.46,15.18,35.1,16.41,37.38.94,1.73,2.14,3.96,3.91,4.94,1.15.64,2.24.59,3.42.1,10.97-4.56,19.76-61.26,25.53-73.88,1.14-2.49,2.81-3.22,5.28-4.14h.03Z"/>
  <path class="cls-9" d="M113.87,388.03c1.09.11,2.04.51,2.93-.21.58-.47,1.35-1.1,1.42-1.89h.53c-.34,3.38-.69,6.67-.49,10.07-1.6-2.55-2.96-5.32-4.4-7.97h.01Z"/>
  <path class="cls-9" d="M235.91,407.13c.03-.57.08-1.13.11-1.7.07-1.41.12-2.8.39-4.19.83-4.21,2.46-9.4,6.16-11.86-1.92,5.93-4.04,12.09-6.66,17.75Z"/>
  <path class="cls-1" d="M264.45,373.75c3.2-9.74,6.08-30.56,15.2-35.89,7.09-4.15,25.55-3.53,33.3-1.28,1.05.56,2.09,1.12,3.17,1.64,5.45,2.6,13.88,8.99,16.7,14.29,1.21,2.25,2.34,4.53,3.39,6.86,1.49,5.05,8.96,25.2,8.97,28.21l1.7.46c.27,7.17,4.63,13.96,7.11,20.51,1.54,4.08,2.55,8.33,4.01,12.44,2.84,7.95,11.98,31.57,16.48,37.42l.88,1.03c.86-1.31,1-2.64,1.26-4.15.08.21.16.43.25.64.26.65.54,1.09.88,1.68.18.31.33.63.5.95-.07-6.66-.14-13.25.31-19.9-.17-4.02.22-8.06.09-12.08-.25-7.67-1.12-15.44-.49-23.1l.25,2.8c.82-7.79-.17-15.71.66-23.5,1.01,7.41,1.21,18.68.52,26.17,1.37,19.29.47,39.22.44,58.59-.08,7.2-.02,14.39.18,21.58,1.4,2.1,2.41,3.38,4.78,4.43,7.83,3.47,27.02,7.12,35.02,3.63,9.48-4.13,1.75-27.24,5.26-35.59,1.41-1.16,4.56-1.21,6.37-1.48.36,4.64,4.18,9.98,5.93,14.35,1.39,3.47,2.09,6.58,2.94,10.17.02.1.09.18.13.27l-.14,2.99c-.3,6.93-.43,16.85-6.03,21.9-4.65,4.19-11.8,4.78-17.79,4.3-11.74-.94-25.05-5.61-35.35-11.09-3.55,1.95-7.11,4.18-10.8,5.84-8.05.02-15.35,4.86-23.29,5.65-4.32.43-8.02-2.2-12.32-1.53-7.3-4.62-10.65-12.84-14.28-20.31l-4.18-2.93c-4.47-.49-21.01-1.91-24.38-.3-4.77,2.28-4.16,14.53-5.93,19.51l-.27.76c-3.49,3.51-7.26,5.11-12.22,5.31-9.74.39-20.94-2.19-28.67-8.34-2.36-1.87-4.38-4.23-6.57-6.29-5.53-4.2-8.98-5.5-11.07-12.52-.91,1.39-1.7,2.62-1.98,4.29-.23,1.36-.47,2.69-.78,4.03-1.4,6.08-3.63,13.55-9.37,16.91-5.56,3.25-19.81,3.73-26.2,1.85-4.19-1.23-7.69-3.78-11.05-6.48-11.82-9.48-11.44-13.51-17.95-26.21-4.37-8.53-8.97-16.97-13.48-25.43.09-.63.39-1.64.33-2.23-.29-2.85-4.08-7.3-5.48-9.95-1.74-3.27-2.86-7.13-4.02-10.65l.46.63.06-.42c-.35-.95-.64-1.51-1.34-2.26-5.05-10.62-12.12-20.05-15.8-31.35.09.1.18.2.27.3,5,5.78,13.24,22.91,17.31,30.27l16.28,29.46c1.59,2.93,3.51,5.68,5,8.66,4.18,8.38,6.86,19.12,12.84,26.37,2.66,3.22,5.67,4.7,9.83,5,6.1.44,16.41,0,21.09-4.29,1.7-1.56,2.46-2.94,3.24-5.08.34-.94.7-1.87,1.04-2.8l1.83-5.98c2.2-9.42,5.62-18.41,8.25-27.69l4.91-11.84c1.2-7.67,10.27-26.91,13.28-35.85,2.61-5.66,4.73-11.82,6.66-17.75,2.2-5.79,4.44-11.57,6.71-17.33.56-.14,1.03-.45,1.54-.72,1.83-2.4,2.18-5.26,2.76-8.17-.79-1.72-1.2-3.7-2.19-5.32-2.96-4.82-9.43-6.88-11.96-11.61,7.34,4.25,13.88,9.85,18.47,17.03,2.41,3.24,5.26,6.63,6.57,10.47l-.03.04Z"/>
  <path class="cls-12" d="M237.75,453.98c.19-.54.39-1.08.62-1.61.69-1.58,1.49-2.38,3.14-3l1.34.83c-1.07,3.51-2.1,7.01-3.49,10.41-.1-2.11.28-4.09-.34-6.15l-1.27-.49h0Z"/>
  <path class="cls-12" d="M343.54,414.83c.26-1.14.17-1.98,1.16-2.66,1.64,1.6,5.78,13.9,6.17,16.51l-.36.95-.72-.25c-.07-.3-.14-.6-.23-.89-.44-1.61-1.47-3.6-2.78-4.66-1.31-2.91-1.8-6.04-3.25-9h0Z"/>
  <path class="cls-12" d="M229.41,477.39l1.54-.1c1.14,1.8-.63,4.02.87,5.55.39,3.67,2.25,8.4,5.35,10.7.65.48.83.55,1.49.89-2.2.85-3.74-.48-6.06-.68,1.79,1.63,3.39,3.42,5.41,4.77.23.68.37,1.13.4,1.85-5.53-4.2-8.98-5.5-11.07-12.52-.57-3.1,1.26-7.39,2.07-10.46h0Z"/>
  <path class="cls-12" d="M222.63,442.98c.31,3.05-1.56,4.86-.42,7.84.24.62.62,1.38.55,2.07-.06.53-9.34,24.27-10.33,26.53.06-1.35.21-2.79.12-4.13-.63,2.3-1.21,4.55-2.17,6.74l-.92.47c2.2-9.42,5.62-18.41,8.25-27.69l4.91-11.84h0Z"/>
  <path class="cls-8" d="M242.85,450.21c7.06-20.27,14.46-40.42,21.24-60.79,4.39-13.17,7.95-26.84,13-39.76,1.45-3.71,2.41-5.99,6.27-7.57,6.08-2.49,22.9-2.63,28.89.11,7.11,3.25,9.02,12.18,11.39,18.92.89,4.12,2.68,8.18,4.13,12.14,3.44,9.41,7.14,18.61,10.78,27.93,1.74,4.45,2.9,9.37,5,13.63,1.45,2.96,1.94,6.08,3.25,9,1.26,7.15,7.1,17.66,10.2,24.64,5.13,11.57,10.2,24.53,12.97,36.88-5.24,8.48-16.79,11.89-26.01,14.07-1.96.46-3.93.9-5.9,1.32-.71-.24-.43-.19-1.09-.28-.57-.08-1.17-.14-1.73-.28-8.53-2.07-11.97-18.21-15.93-24.94l-.48-.81-.36-.78c-6.36-1.11-28.41-.67-35.1.4-1.66.27-3.23.79-4.59,1.8-10.01,7.41,3.44,26.38-18.3,23.75-6.57-.8-15.54-3.01-21.8-5.17-.66-.34-.84-.41-1.49-.89-3.1-2.3-4.96-7.03-5.35-10.7.22-.56.29-1.23.36-1.83.62-5.15,4.71-15.69,7.17-20.39,1.39-3.4,2.42-6.9,3.49-10.41h-.01Z"/>
  <path class="cls-1" d="M298.03,412.71c1.08.02,1.84.15,2.85.52,3.63,3.82,5.33,14.04,6.18,19.04.4,2.34,1.12,5.21-.31,7.23-1.87.92-3.83.87-5.88.98-3.15.04-7.11.51-10.13-.39-.21-.4-.29-.49-.36-1.01-.54-4.36,5.21-22.7,7.63-26.37h.02Z"/>
  <path class="cls-1" d="M518.8,334.63c7.77-2.73,19.74-.9,27.54,1.26,3.47.63,6.78,1.59,9.68,3.68,2.35,1.79,5.06,3.25,7.31,5.14,1.9,1.72,3.42,3.92,5,5.93-.1-3.12.09-5.77,1.7-8.55,1.94-3.37,5-4.76,8.63-5.65-.15.19-.3.37-.46.56-2.6,3.04-7.61,5.01-7.66,9.53l.11.18-.02-.38.35.82c.33.74.64,1.24,1.22,1.83,1.06-2.6,2.04-5.87,4.83-7.11,1.14-.51,2.33-.71,3.57-.55-2.32,1.51-5.56,3.09-6.32,5.95-3.89,14.58-1.29,35.29-1.06,50.64.25,16.52.28,33.11.14,49.62-.09,7.46-.34,14.91-.75,22.36-.25,4.8-.82,9.81-.53,14.61.18,3.04,1.79,4.73,2.83,7.42-.29-.09-.58-.17-.87-.26-.99-.32-1.45-.72-2.13-1.51l-1.14-.2c-.62.66-.53.34-.54,1.21-.04,3.48,3.4,7.24,4.18,10.71-2.41-2.89-4.58-5.82-6.64-8.97-.51,5.19-1.72,13.3-5.91,16.83-6.25,5.26-29.75,5.05-37.93,3.95-6.68-.9-12.24-6.36-16.06-11.67-1.02-1.41-2.76-5.18-4.11-5.85-.07.23-.12.46-.2.68-.74,1.9-3.05,3.78-4.4,5.33-4.79,5.46-9.37,11.64-16.63,13.93-5.77,1.82-12.95,1.15-18.23-1.79-4.22-2.35-7.37-5.92-10.22-9.74-3.02-4.08-5.97-8.16-8.42-12.62-1.64-2.4-3.48-4.59-5.02-7.07-.04-.09-.11-.17-.13-.27-.86-3.6-1.55-6.7-2.94-10.17-1.75-4.37-5.57-9.7-5.93-14.35-1.81.27-4.96.32-6.37,1.48-3.5,8.35,4.22,31.47-5.26,35.59-8,3.48-27.19-.17-35.02-3.63-2.38-1.05-3.38-2.33-4.78-4.43-.2-7.19-.26-14.39-.18-21.58.03-19.37.93-39.3-.44-58.59.69-7.49.5-18.75-.52-26.17.48-9.93-3.56-20.44-1.6-30.3.2-1.02.37-2.04.56-3.06,7.15-6.83,24.7-9.59,34.25-11.41,4.59-.35,9.08-.61,13.68-.5,3.93.54,7.92.38,11.79,1.01,15.97,2.59,31.59,9.81,41.53,22.9.93,1.24,1.82,2.5,2.69,3.78l.36-.83c-.29-6.02-14.81-14.17-18.26-19.28.61-.49.49-.6,1.18-.57,4.45.18,13.49,8.59,16.73,11.63l.88-.28-1.64-2.39c.28.15.55.29.83.44,7.58,4.24,17.88,18.24,20.09,26.47.76,2.81,1.06,5.85,2.32,8.49l.65-.43c.12-3-.51-6.09-.87-9.07-1-8.21-2.57-16.89-2.18-25.16-.03-2.61-.21-5.42.2-8,.6-3.82,2.49-7.6,5.8-9.75,2.98-1.93,7.35-2.55,10.77-1.84l-.03.02Z"/>
  <path class="cls-12" d="M552.64,480.87c.08-.14.18-.26.24-.41.54-1.24-.19-4.03.73-4.62,2.23,2.61,1.8,10.32,1.51,13.73-.26,3.04-1.57,6.65-3.61,8.94l-1.06.28-.8-.58c.27-1.16-.03-.69.73-1.36,2.19-1.95,2.69-2.78,2.86-5.67.12-1.99.06-4.08-.69-5.96l.09-4.36h0Z"/>
  <path class="cls-14" d="M482.12,456.42c4.74,4.09,12.73,10.93,13.32,17.59.26,2.96-1.54,7.86-3.76,9.93-.79.74-1.58,1.04-2.56,1.43,7.23-11.92,3.9-13.76-3.82-23.35-1.44-1.79-2.66-3.3-3.18-5.61h0Z"/>
  <path class="cls-2" d="M566.65,385.82c1.69,4.71,1.23,39.12-.37,42.9-.69-11.37-2.8-32.44.37-42.9Z"/>
  <path class="cls-12" d="M477.1,430.36c3.37-4.33,5.66-9.12,8.04-14.03-.02,5.09-4.75,9.25-4.71,12.12l1.57.93.08.86c-.8.82-1.58,1.59-2.47,2.32-.67,1.8-2.23,3.47-3.39,4.99l7-7.19c-2.37,5.74-7.06,6.49-6.58,13.71l-.61.63c-.78-.07-1.52-.16-2.3-.31-.29-.92-.78-1.76-1.21-2.62-.32-.75-.66-1.7-.65-2.53.05-3.45,3.14-6.4,5.21-8.88h.02Z"/>
  <path class="cls-12" d="M431.63,460.1c1.88.38,2.56.65,3.64,2.27,6.26,9.41,10.45,20.17,17.11,29.29l-.75.5-.59-.29c-1.53-3.94-5.6-7.58-8.03-11.15-1.46-2.15-2.52-5.2-4.33-6.97-.37,2.98,3.37,10.74,5.01,13.41.78,1.27,1.91,2.66,2.01,4.19.01.2-.03.41-.04.61-1.64-2.4-3.48-4.59-5.02-7.07-.04-.09-.11-.17-.13-.27-.86-3.6-1.55-6.7-2.94-10.17-1.75-4.37-5.57-9.7-5.93-14.35h-.01Z"/>
  <path class="cls-2" d="M481.19,353.48c.28.15.55.29.83.44,7.58,4.24,17.88,18.24,20.09,26.47.76,2.81,1.06,5.85,2.32,8.49l.65-.43c.12-3-.51-6.09-.87-9.07-1-8.21-2.57-16.89-2.18-25.16l1.92,6.58c.22,5.25,1.03,10.45,1.36,15.69,1.06,14.36,1.37,28.73.93,43.12-.13,4.91.06,10.18-.68,15.02-.21-4.04.79-16.51-.87-19.37-2.07,3.48-2.3,8.82-3.69,12.78-2.78,7.96-7.15,14.77-11.74,21.77.91,3.23,10.9,18.31,13.22,20.71-.13.93-.2,1.91-.52,2.79-3.44-4.96-12.25-17.4-13.85-22.77-.11-.38-.41-1.52-.32-1.88.65-2.61,5.34-8.82,7.02-11.73,8.37-14.56,11.74-33.77,7.38-50.13-2.74-10.27-6.66-16.63-13.28-24.7-1.74-2.12-3.68-4.84-6.08-6.23l-1.64-2.39h0Z"/>
  <path class="cls-15" d="M489.26,449.82c4.59-7,8.96-13.81,11.74-21.77,1.39-3.96,1.62-9.3,3.69-12.78,1.67,2.85.66,15.32.87,19.37-.27,11.64-.94,24.44-3.08,35.89-2.32-2.4-12.31-17.47-13.22-20.71h0Z"/>
  <path class="cls-8" d="M518.8,334.63c7.77-2.73,19.74-.9,27.54,1.26,3.47.63,6.78,1.59,9.68,3.68l.22,2.6c-.9.88-1.78,1.76-2.76,2.55,2.09,5.91-1.56,19.1-2.37,25.72-.55,4.66-.92,9.32-1.12,14.01-.82,18.88-.78,37.77.12,56.65.67,13.28,1.97,26.49,2.54,39.78l-.09,4.36c-.46,2.99-.72,6.38-2.46,8.94-1.13,1.66-2.72,3.03-4.71,3.42-6.09,1.2-30.68,1.07-35.2-2.77-2.73-2.31-2.95-6.59-3.17-9.89-.45-.07-.98.04-1.44.09-1.95-1.2-.35-6.82-1.08-9.08-.51-1.6-1.1-1.87-2.53-2.63.32-.89.38-1.86.52-2.79,2.14-11.45,2.81-24.25,3.08-35.89.75-4.85.55-10.11.68-15.02.44-14.39.13-28.76-.93-43.12-.33-5.25-1.15-10.44-1.36-15.69l-1.92-6.58c-.03-2.61-.21-5.42.2-8,.6-3.82,2.49-7.6,5.8-9.75,2.98-1.93,7.35-2.55,10.77-1.84h0Z"/>
  <path class="cls-12" d="M518.8,334.63c7.77-2.73,19.74-.9,27.54,1.26,3.47.63,6.78,1.59,9.68,3.68l.22,2.6c-.9.88-1.78,1.76-2.76,2.55-.11-.04-.23-.07-.32-.13-1.32-.92-2.48-1.81-3.9-2.63-8.47-3.32-28.1-4.42-36.71-.77-1.72.73-3.23,1.69-4.47,3.09-.35,5.66-.27,11.22.04,16.88,2.25,7.04,3.12,21.59,2.88,29.05.14,15.46.67,31.23-.23,46.66-.93,16.02-3.26,32.08-3.77,48.07-.45-.07-.98.04-1.44.09-1.95-1.2-.35-6.82-1.08-9.08-.51-1.6-1.1-1.87-2.53-2.63.32-.89.38-1.86.52-2.79,2.14-11.45,2.81-24.25,3.08-35.89.75-4.85.55-10.11.68-15.02.44-14.39.13-28.76-.93-43.12-.33-5.25-1.15-10.44-1.36-15.69l-1.92-6.58c-.03-2.61-.21-5.42.2-8,.6-3.82,2.49-7.6,5.8-9.75,2.98-1.93,7.35-2.55,10.77-1.84h.01Z"/>
  <path class="cls-14" d="M502.02,354.22c-.03-2.61-.21-5.42.2-8,.6-3.82,2.49-7.6,5.8-9.75,2.98-1.93,7.35-2.55,10.77-1.84-4.88,1.35-10.9,2.63-13.51,7.51-2.01,3.76-1.57,9.1-1.24,13.23l-.1,5.43-1.92-6.58h0Z"/>
  <path class="cls-8" d="M412.26,338.01c4.59-.35,9.08-.61,13.68-.5,3.93.54,7.92.38,11.79,1.01,15.97,2.59,31.59,9.81,41.53,22.9.93,1.24,1.82,2.5,2.69,3.78.39.78.77,1.56,1.13,2.35.36.79.7,1.59,1.03,2.4s.64,1.62.93,2.44c.3.82.57,1.64.84,2.47.26.83.51,1.66.74,2.51.23.84.44,1.68.63,2.53s.37,1.7.53,2.56.3,1.71.43,2.58c.13.86.23,1.72.32,2.59s.16,1.73.22,2.6.09,1.74.11,2.61.02,1.74,0,2.61c-.01.87-.05,1.74-.1,2.61-.05.87-.12,1.74-.2,2.6-.09.87-.19,1.73-.31,2.59s-.26,1.72-.41,2.58c-.62,3.51-2.31,7.05-2.71,10.51-2.38,4.91-4.68,9.71-8.04,14.03-2.07,2.48-5.17,5.43-5.21,8.88-.01.83.33,1.78.65,2.53.43.86.92,1.7,1.21,2.62,2.01,4.43,5.31,8.3,8.38,12.04.51,2.31,1.73,3.81,3.18,5.61,7.72,9.59,11.05,11.43,3.82,23.35-3.94,4.9-14.79,17.93-20.87,18.62-3.08.35-5.96-1.42-8.21-3.33-3.04-2.58-5.31-5.82-7.67-9.01-6.66-9.11-10.84-19.88-17.11-29.29-1.08-1.62-1.75-1.89-3.64-2.27-1.81.27-4.96.32-6.37,1.48-3.5,8.35,4.22,31.47-5.26,35.59-8,3.48-27.19-.17-35.02-3.63-2.38-1.05-3.38-2.33-4.78-4.43-.2-7.19-.26-14.39-.18-21.58.03-19.37.93-39.3-.44-58.59.69-7.49.5-18.75-.52-26.17.48-9.93-3.56-20.44-1.6-30.3.2-1.02.37-2.04.56-3.06,7.15-6.83,24.7-9.59,34.25-11.41h0Z"/>
  <path class="cls-14" d="M424.53,379.63c6.1-1.45,12.45-1.48,17.94,1.97.7.44,1.34.94,1.99,1.45-1.49-.12-2.91-.57-4.34-.95-5.11-1.87-10.36-1.28-15.59-2.47Z"/>
  <path class="cls-12" d="M424.53,379.63c5.23,1.19,10.48.6,15.59,2.47-.6.37-1.17.73-1.87.89-1.39.33-16.21,1.58-17.01,1.4-.26-.06-.52-.13-.77-.2.75-2.46,1.98-3.27,4.07-4.57h-.01Z"/>
  <path class="cls-1" d="M440.11,382.1c1.43.38,2.85.83,4.34.95l3.2,3.61c1.61,7.1,2.79,14.62-1.16,21.26-2.72,4.57-7.53,7.23-12.62,8.32-3.27.7-7.46.92-10.37-1.05-1.79-1.21-2.18-3.3-2.48-5.3-1.22-8.11.78-18.19-.56-25.69.26.07.51.14.77.2.8.17,15.62-1.08,17.01-1.4.7-.16,1.27-.53,1.87-.89h0Z"/>
  <path class="cls-14" d="M437.13,398.51c.12-1.45-.11-3.03,1.24-3.98,1.16-.81,1.99-.63,3.26-.43,1.37.96,2.08,1.9,2.39,3.55.6,3.23-.54,7.32-2.53,9.9-.74.96-1.61,1.75-2.84,1.97-.82.15-1.04-.25-1.68-.68-1.06-2.21-.8-4.79-.11-7.09.26-1.02.22-2.18.28-3.24h-.01Z"/>
  <path class="cls-16" d="M437.13,398.51c1.12-1.08,1.98-2.11,3.58-2.44l.76.5c.57,3.15-1.11,6.95-2.74,9.62-.12.2-.27.38-.41.57-.57-1.66-1.04-3.32-1.47-5.02.26-1.02.22-2.18.28-3.24h0Z"/>
  <path class="cls-1" d="M709.69,337.14c10.76.09,21.54.29,32.29-.06,9.47-.3,18.99-1.13,28.46-1.05,1.69.01,3.43,0,5,.67,2.74,1.74,5.44,3.58,7.94,5.66,2.33,2.75,4.45,6.21,7.8,7.68-.5.65-.58.9-.78,1.67,4.08,2.55,19.52-10.46,26.21-8.54-2.62,1.5-5.42,2.31-8.16,3.54-8.17,3.68-16.89,8.13-23.79,13.87l-1.37,4.92c1.82,7.76,10.89,24.87,15.13,32.38,3.34,6.27,6.82,12.46,10.43,18.58-.27-.12-.54-.24-.8-.36-2.37-1.17-7.17-8.75-10.03-11.58,0,5.25,8.12,13.16,9.36,18.87-5.17-4.89-10.22-15.4-13.56-21.8-1.49-2.35-2.82-4.6-3.94-7.16-1.46,1.59-2.99,3.91-5.09,4.44-8.98,2.39-18.22,1.35-27.07,3.64.34,19.1.96,38.18,1.85,57.26.57,12.6,1.9,25.64,1.35,38.21-.11,2.4,0,5.51-1.77,7.32-1.2,1.23-3.1,2.28-4.53,3.22-8.75,5.72-18.46,6.85-28.71,6.06-7.07-.55-16.78-1.02-21.67-6.82-1.58-1.88-2.93-3.97-4.1-6.12-1.18-.8-2.24-1.88-3.19-2.94-6.37-7.13-2.32-30.17-1.78-39.31-.18-6.25.35-12.7.52-18.96.22-8.31.15-16.7.73-24.99-.33-3.41-.06-7.08-.06-10.52-.12-1.51.11-2.01-1.01-3.09-3.93-1.19-8.45-.11-12.18-1.51-4.9-1.83-7.69-8.38-12.35-10.84-2.68,2.22-3.77,5.72-7.3,6.86-2.29.74-11.5.52-12.28,1.41,9.32,10.48,18.66,8.82,17.69,26.53-.28,5.16-.86,10.42-2.05,15.45l.57.64c-.39,5.34-2.76,10.93-5.09,15.71l3.77,3.89c8.16,7.95,11.78,14.43,11.93,25.92.04,5.83-.24,11.64-.84,17.43-6.04,3.26-11.73,5.88-18.58,6.85-3.44.28-5.1.4-7.69,2.92-14.97.83-29.51.86-44.48.35-6.06-.21-12.38-.08-18.32-1.36-3.03-.65-5.71-1.8-8.2-3.65l-5.55-6.52c-.78-3.47-4.22-7.23-4.18-10.71.01-.87-.07-.55.54-1.21l1.14.2c.68.79,1.14,1.2,2.13,1.51.29.09.58.17.87.26-1.04-2.69-2.65-4.39-2.83-7.42-.29-4.8.28-9.81.53-14.61.41-7.45.66-14.9.75-22.36.14-16.52.11-33.11-.14-49.62-.23-15.34-2.83-36.05,1.06-50.64.76-2.86,3.99-4.45,6.32-5.95,16.16-.33,32.23-.39,48.39-.33,8.15.03,16.62-.57,24.68.6.15-.05.3-.12.45-.15,1-.21,2.35.1,3.12.78,1.88,1.65,1.37,6.57,1.81,8.95l1.78-.02c1-2.53-.07-8.64-.16-11.51,2.52,2.17,5,4.48,7.7,6.42.96-1.67,1.69-3.03,3.26-4.19.12-.13.23-.26.35-.38,1.41-1.41,3.23-2.77,5.11-3.46,7.83-2.88,24.09-1.07,32.6-.88v-.05Z"/>
  <path class="cls-14" d="M702.67,496.82c-.81-.13-1.67-.22-2.38-.66-1.38-.86-2.13-2.65-2.47-4.16-.58-2.55-.41-8.12,1.02-10.36.02,6.08-.17,10.24,3.83,15.18h0Z"/>
  <path class="cls-14" d="M647.66,382.32c1.64-.15,3.38-.18,4.79-1.11,3.21-2.1,3.68-7.05,4.5-10.46.5,3.35.89,7.85-1.14,10.79-.8,1.16-1.84,1.74-3.23,1.97-1.54.25-3.59-.49-4.93-1.19h.01Z"/>
  <path class="cls-18" d="M660.07,462.73c2.49,1.79,3.02,3.27,3.48,6.34.46,3.11.49,6.48.45,9.62-.74,1.74-.54,3.58-.9,5.4.02-6.93-1.41-14.62-3.03-21.36h0Z"/>
  <path class="cls-12" d="M775.44,336.69c2.74,1.74,5.44,3.58,7.94,5.66l-.47.65c-1.01.24-1.35.35-2.22.99l-.2,3.43-.5.37c-2.58-7.47-6.76-6-8.51-9.58,1.28-1.12,2.31-1.15,3.95-1.51h0Z"/>
  <path class="cls-2" d="M778.54,355.32c1.09,6.79,1.57,23.67-2,29.41-.56.3-1.11.66-1.72.85,2.11-9.68,3.48-20.37,3.71-30.25h0Z"/>
  <path class="cls-12" d="M671.62,341.86c.12-.13.23-.26.35-.38,1.41-1.41,3.23-2.77,5.11-3.46,7.83-2.88,24.09-1.07,32.6-.88l2.57.65c-2.48.92-17.94.81-21.52.63-3.04-.16-6.4-.9-9.4-.75-3.65.17-6.58,4.38-9.71,4.21v-.02Z"/>
  <path class="cls-9" d="M666.89,439.7l.57.64c-.39,5.34-2.76,10.93-5.09,15.71-1.85-1.52-5.04-2.6-5.58-5.11,1.32-1.22,3.68-1.29,5.45-1.85,1.62-1.43,4.07-5.76,4.24-7.9.09-1.04-.08-.45.41-1.49h0Z"/>
  <path class="cls-12" d="M574.41,501.88c-.78-3.47-4.22-7.23-4.18-10.71.01-.87-.07-.55.54-1.21l1.14.2c.68.79,1.14,1.2,2.13,1.51.29.09.58.17.87.26.95,1.22,1.87,2.5,2.9,3.65l-.8.5c-2.14-.36-2.68-1-4.21-2.42-.38-.35-.78-.67-1.17-1.01.6,3.14,2.97,6.39,5.58,8.24l-.47-1.36.58-1.09c1.75.93,3.42,4.12,4.81,5.75l-.75.19-1.04-.63c.47,2.11,1.28,3.01,2.85,4.45l-3.24.2-5.55-6.52h0Z"/>
  <path class="cls-12" d="M789.49,391.7c1.8-4.35-3.53-10.61-2.03-11.5,4.36,5,5.07,14.35,10.97,17.66,3.34,6.27,6.82,12.46,10.43,18.58-.27-.12-.54-.24-.8-.36-2.37-1.17-7.17-8.75-10.03-11.58,0,5.25,8.12,13.16,9.36,18.87-5.17-4.89-10.22-15.4-13.56-21.8,0-3.36-1.63-5.61-3.82-8.06-.49-.54-.42-1.1-.53-1.81h.01Z"/>
  <path class="cls-12" d="M698.67,424.68c1.18.78,1.04,1.15,1.42,2.54l.02-.25c.2,3.32.05,6.63,1.43,9.71.05,10.14-.83,20.24-1.64,30.34l-1.08.76c-.86-1.74-.63-5.93.04-7.71.1-.28.24-.54.36-.81,1.6-3.68.2-17.62.29-22.59-1.81,8.06-.78,37.88-3.89,42.17l-.95-.45c-.93,9.53,1.01,15.48,6.4,23.07l-.91.16c-1.18-.8-2.24-1.88-3.19-2.94-6.37-7.13-2.32-30.17-1.78-39.31,2.38-2.85,2.77-15.77,2.87-19.79.81-4.79.52-10.01.61-14.88v-.02Z"/>
  <path class="cls-8" d="M674.18,384.67c-.94-1.61-1.71-3.03-1.94-4.92-.8-6.63.54-31.85,4.72-36.29,1.52-1.62,4.93-1.57,7.07-1.75,5.49-.48,11.17-.04,16.69.1,8.26.24,16.52.36,24.78.35,13.78,0,27.76-1.38,41.49-.96,2.22.07,6.39-.21,8.08,1.4.12.12.23.25.35.38,3.1,3.29,2.91,8.09,3.12,12.34-.23,9.89-1.61,20.57-3.71,30.25-6.1.55-26.04,0-29.82,2.14-5.62,8.51,5.17,96.81.6,104.55-1.7,2.88-6.89,4.22-9.99,4.85-10.59,2.14-22.4,1.89-32.95-.3-4-4.94-3.82-9.1-3.83-15.18.25-4.89.49-9.76,1.06-14.62.81-10.1,1.69-20.2,1.64-30.34.7-11.5.38-23.14-.12-34.64.2-4.83-1.03-9.84-2.06-14.52-8.24-.07-17.19-.86-25.18-2.85h0Z"/>
  <path class="cls-8" d="M580.59,341.32c16.16-.33,32.23-.39,48.39-.33,8.15.03,16.62-.57,24.68.6,1.26,1.31,2.37,2.31,3.92,3.26,1,8.72.34,17.2-.63,25.9-.82,3.41-1.3,8.36-4.5,10.46-1.42.93-3.15.96-4.79,1.11-5.28.42-10.47.41-15.76.2-3.83-.15-8.1-.71-11.9-.17-2.09.3-4.14,1.05-5.54,2.69-2.67,3.1-2.02,6.87-1.62,10.62l.53.53c4.83,4.76,9.95,5.98,16.61,5.95,5.19-.03,16.86-1.84,20.78,2.08,3.1,3.1,2.35,9.09,2.04,13.07-.37,4.83-1.07,16.14-5.12,19.42-2.71,2.19-18.21.79-22.48.93-2.57.09-5.01.71-7.53.85l-.47,1.49c.29.44.77.8.87,1.32.21,1.12-1.62,9.13-1.83,11.17-.39.57-.66.92-1.19,1.38.55,2.01,1.5,3.28,3.35,4.23,1.28.66,2.8,1.03,4.2,1.36,7.54,1.1,15.63.69,23.17-.34,3.14-.43,7.05-1.54,10.18-1.3.9.07,1.93.87,2.47,1.58.78,1.02,1.23,2.17,1.67,3.37,1.62,6.74,3.05,14.43,3.03,21.36-.82,4.06-1.96,7.13-5.01,10.02-12.63,4.47-49.4,3.53-63.36,2.71-5.16-.31-11.91-2.2-16.91-1.24-1.03-1.15-1.95-2.43-2.9-3.65-1.04-2.69-2.65-4.39-2.83-7.42-.29-4.8.28-9.81.53-14.61.41-7.45.66-14.9.75-22.36.14-16.52.11-33.11-.14-49.62-.23-15.34-2.83-36.05,1.06-50.64.76-2.86,3.99-4.45,6.32-5.95l-.04-.03Z"/>
  <path class="cls-9" d="M612.35,449.41c1.14,1.26,1.61,2.06,2.18,3.66l.51.78c.55,2.01,1.5,3.28,3.35,4.23,1.28.66,2.8,1.03,4.2,1.36-1.09.35-2.24.78-3.38.9-.17.02-.34.03-.51.02-.17,0-.34,0-.51-.03-.17-.02-.34-.04-.51-.08-.17-.03-.33-.08-.5-.13-.16-.05-.32-.11-.48-.18s-.31-.14-.46-.23-.3-.17-.44-.27c-.14-.1-.28-.2-.41-.31-2.57-2.16-2.85-6.61-3.03-9.72h0Z"/>
  <path class="cls-12" d="M612.35,449.41c.21-2.21.17-5.6,1.15-7.54.96-1.9,2.23-2.63,4.16-3.38l-.47,1.49c.29.44.77.8.87,1.32.21,1.12-1.62,9.13-1.83,11.17-.39.57-.66.92-1.19,1.38l-.51-.78c-.56-1.6-1.04-2.4-2.18-3.66Z"/>
  <path class="cls-18" d="M612.35,449.41c.21-2.21.17-5.6,1.15-7.54.96-1.9,2.23-2.63,4.16-3.38l-.47,1.49c-2.86,4.1-2.87,8.31-2.66,13.1-.56-1.6-1.04-2.4-2.18-3.66h0Z"/>
  <path class="cls-1" d="M650.45,571.05c6.08-10.38,14.03-15.85,25.64-18.86,11.18-2.9,22.01-1.88,33.15.54,2.99.65,6.25,1.16,8.87,2.82,2.75,1.74,6.43,5.24,7.98,8.1,4.65,8.3,2.74,14.69,1.13,23.42-.48,2.62-.68,5.39-1.4,7.96-.42,1.52-1.41,3.37-2.76,4.27-3.9,2.62-12.38-2.54-16.66-2.74-1.62-.07-3.48.69-4.98,1.21-1.93.66-2.45.62-3.59,2.35.19,1.23.57,1.64,1.55,2.36,1.63,1.2,3.15,1.82,4.41,3.48-2.55-.9-4.93-3.72-7.75-3.18-.97.18-.93.55-1.42,1.32-.12-.06-.25-.12-.36-.19-3.11-2.02-7.09-4.97-7.86-8.79-.34-1.7.05-3.3,1.02-4.73,1.78-2.64,4.66-3.26,7.56-3.95,6.21.04,11.27,3.62,17.12,3.77,2.19-5.49,4.46-22.69,2.57-27.82-.82-2.24-4.11-3.27-6.15-3.85-12.84-3.66-28.55-4.35-40.44,2.64-8.6,5.06-14.07,13.98-16.52,23.5-2.61,10.14.67,19.38,5.24,28.32-.27-.13-.54-.25-.8-.38-2.92-1.5-4.69-6.98-5.44-9.99-.13-.51-.24-1.03-.33-1.55l-.98-.54c-.91.63-.75.25-.91,1.26-.76,4.72,3.24,9.28,2.93,13.71-3.38-4-4.71-9.81-6.42-14.67l-4.07,1.8c-4.17,1.84-8.57,1.95-13.05,2.14.16,21.49.95,43.09.69,64.57-.6,4.71-1,9.75-2.38,14.31-2.13,2.4-4.11,5.05-6.95,6.64-7.93-.16-24.57,2.04-30.92-2.95.74-.36.33-.11,1.15-.85l-.03-.94c-1.77-2.02-4.35-3.18-6.34-4.97-4.87-4.39-6.57-10.13-6.95-16.47l-.53-.08c-1.23-7.98-.34-16.32-.24-24.37.04-2.93.54-22.54-.16-23.75-.32-.55-.89-.91-1.34-1.37-.53-1.98.74-3.92.46-5.77-.04-.28-.08-.58-.24-.81-.96-1.48-7.82-2.62-9.58-3.46-1.92-.91-2.54-3.23-4.1-4.44-1.17-.9-1.64-.74-3.02-.62-1.31,1.08-1.19,1.47-1.54,3.09-2.49,1.58-8.36.83-11.39.78,2.2,2.1,3.76,4.55,5.84,6.7,1.17,1.21,2.56,1.99,3.57,3.37,2.68,6.21,3.41,17.98,1.05,24.43-.33.9-.29.77-.68,1.49-10.55,8.67-16.97,3.27-24.87,7.82-1.59.04-2.25-.19-3.51.83-.97,2.33-.36,5.42-.19,7.9-.25,7.79.3,15.54-.35,23.32-2.22,3.31-3.74,6.93-5.82,10.31-9.06,3.77-21.41,4.69-30.58.8-1.98-.84-6.92-2.84-7.77-4.78l.15-.78c-1.12-1.64-3.99-2.79-5.72-3.77-.12.16-.29.3-.38.48-.7,1.61-.84,2.62-1.94,4.2-.41.59-.8,1.19-1.26,1.76-2.85,3.58-7.96,4.91-12.3,5.4-6.2.7-19.54-.03-23.97-4.79-2.14-2.3-3.55-5.81-6.07-7.64-.26-.19-.54-.37-.81-.56-.77-1.85-1.64-2.79-3.17-4.07-1.33-.17-1.97-.08-3.08.76-4.16,3.14-6.24,7.38-11.48,9.32-2.34,1.55-4.62,2.69-7.18,3.81-5.44,1.87-10.96,2.44-16.65,3.12-1.43-.76-2.68-1.05-4.26-1.34-10.68.6-21.84-1.2-31.7-5.38-6.26-2.65-20.55-11.32-23.06-17.47-4.01-3.65-7.49-8.79-9.97-13.61-4.62-6.6-5.9-15.65-7.41-23.37-.8-5.08-1.66-10.1-1.82-15.25.02-.57.04-1.14.07-1.72.06-1.15.16-2.29.28-3.44.12-1.14.27-2.28.45-3.42.18-1.14.38-2.27.61-3.39.23-1.13.49-2.25.78-3.36s.6-2.22.94-3.32c.34-1.1.71-2.19,1.11-3.27s.82-2.15,1.27-3.21c.45-1.06.92-2.11,1.42-3.14.5-1.04,1.03-2.06,1.58-3.07s1.13-2,1.73-2.99c.6-.98,1.22-1.95,1.87-2.9s1.32-1.88,2.01-2.8,1.41-1.82,2.15-2.7,1.5-1.75,2.28-2.59,1.58-1.67,2.4-2.48,1.66-1.59,2.52-2.36c13.71-12.13,31.53-15.06,49.28-13.98,11.78.25,23.78,4.18,32.1,12.93,2.91,3.07,4.1,6.37,3.96,10.59-.19,5.62-1.66,12.18-3.62,17.45-.98,2.64-2.56,5.47-3.14,8.21-.25,1.16-.12,1.98.64,2.91,1.76,2.15,4.83,3.98,6.98,5.83,1.43,2.95,3.93,5.2,6.2,7.5,2.35-12.93,1.01-26.96,1.23-40.1-.13-5.51-.93-12.11.35-17.47.9-3.79,2.43-5.23,5.63-7.29,5.31-1.93,24.01-1.7,29.24.79,1.71.81,3.2,1.98,4.61,3.23,1.75,1.72,3.46,3.47,5.14,5.25,3.67-3.22,7.24-7.59,11.83-9.4,3.47-1.36,48.79-.9,54.96-.48,6.21.42,10.42,3.29,14.53,7.73l.79.15c2.05-.93,3.93-4.38,5.7-6.08l.42-.39c9.3-2.86,20.78-1.45,30.49-1.59,9.37.19,37.09-1.26,43.68.72,4.01,1.2,7.62,3.98,10.51,6.96,3.43,3.53,5,6.83,6.54,11.45v-.04Z"/>
  <path class="cls-12" d="M412.14,566.18c1.34.42,1.97.8,2.79,1.98,1.53,2.21,1.09,5.62.73,8.11h-.54c-1.63-2.38-2.23-7.2-2.98-10.09h0Z"/>
  <path class="cls-12" d="M512.26,673.47l1.16-.68c1.08.77,1.16,1.64,1.61,2.86-.37,1.76-.37,2.84-1.58,4.2-1.58.54-3.08.6-4.74.7-.66-.44-1.14-1.01-1.68-1.58,2.8-1.53,3.92-2.57,5.23-5.49h0Z"/>
  <path class="cls-8" d="M385.49,604.89c5.31.22,19.3.1,22.95,3.9.22.23.42.46.63.69-1.91-.24-3.68-1.05-5.57-1.31-5.1-.7-14.13.29-18.01-3.28Z"/>
  <path class="cls-12" d="M510.91,590.62l.99-1,.88.18c2.35,3.63-.08,8.64,2.3,12.22l-1.46,2.15-1.71-.9c-1.92-2.45-.94-9.4-1-12.65h0Z"/>
  <path class="cls-14" d="M382.9,691.35c5.12-.96,10.48-.83,15.55-1.96,4.23-.94,8.22-3.29,12.55-3.64-2.34,1.55-4.62,2.69-7.18,3.81-5.44,1.87-10.96,2.44-16.65,3.12-1.43-.76-2.68-1.05-4.26-1.34h0Z"/>
  <path class="cls-12" d="M712.1,590.19c2.02-1.56,2.18-2.95,2.77-5.3,1.04.91,1.39,2.12,1.5,3.51.11,1.44-.12,3.12-1.21,4.16-2.28,2.18-8.07,1.43-11.02,1.3-2.91-2.32-6.34-3.75-9.16-6.18v-1.26c6.22.04,11.27,3.62,17.12,3.77Z"/>
  <path class="cls-12" d="M349.11,633.5c-1.29-2.86-2.33-5.86-2.81-8.97-1.3-8.4-.72-17.98,4.43-25.06.01,9.29-4.11,19.55-.51,28.49,2.3,4.6,5.68,11.22,10.98,12.86.73.23,1.46.21,2.22.17l5.38.64c-.32.07-.63.15-.95.22-1,.22-1.77.18-2.78.1-1.58-.14-2.72.15-4.21.64,1.69.62,3.35.75,5.07,1.46l.04,1,.23-.12-3.83-.05c-.59.09-1.06.08-1.63-.1-5.49-1.7-9.11-6.42-11.64-11.3v.02Z"/>
  <path class="cls-15" d="M538.59,600.22c5.85-.26,11.11-.18,16.04-3.75.08-.75.17-1.49.28-2.24,3.59,0,11.28,8.16,13.95,10.65l7.47.95c.11,13.99-.26,28.01-.31,42.01-.02,5.37-.33,10.91,0,16.25l-.53-.08c-1.23-7.98-.34-16.32-.24-24.37.04-2.93.54-22.54-.16-23.75-.32-.55-.89-.91-1.34-1.37-.53-1.98.74-3.92.46-5.77-.04-.28-.08-.58-.24-.81-.96-1.48-7.82-2.62-9.58-3.46-1.92-.91-2.54-3.23-4.1-4.44-1.17-.9-1.64-.74-3.02-.62-1.31,1.08-1.19,1.47-1.54,3.09-2.49,1.58-8.36.83-11.39.78l-1.95-1.15-3.81-1.91h.01Z"/>
  <path class="cls-15" d="M368.23,607.52c-1.72,6.31-2.94,13.16.49,19.19,2.64,4.63,8.68,5.79,9.02,11.51l-.59,1.19c-2.57,1.91-5.24,1.9-8.34,2.24l-5.38-.64c-.08-1.06-.33-1.75-.77-2.72-1.76-1.19-2.14-2.48-2.57-4.52-1.39-6.57-.71-15.9,3.11-21.53,1.3-1.91,3.21-3.34,5.03-4.72h0Z"/>
  <path class="cls-12" d="M432.01,552.72c5.31-1.93,24.01-1.7,29.24.79,1.71.81,3.2,1.98,4.61,3.23-.18,1.96-.09,7.9-1.18,9.21-1.3-2.35-1.8-5.11-3.8-6.99-2.14-1.48-3.88-2.04-6.46-2.41-.14.02-.29.05-.43.07-4.37.6-19.02-1.45-21.56,1.85-4,5.17-1.44,41.4-1.92,50.62-.13-.15-.27-.29-.39-.45-.61-.83-.75-1.62-.8-2.62-.3-5.69.08-11.43-.21-17.12-.38-7.34-2.73-15.39-1.56-22.66-2.84,4.37.02,13.18-.65,18.54-.42-2.42-.41-4.87-.86-7.27-.13-5.51-.93-12.11.35-17.47.9-3.79,2.43-5.23,5.63-7.29v-.03Z"/>
  <path class="cls-8" d="M454.43,556.53c2.57.38,4.32.94,6.46,2.41.63,3.88,1.47,7.36,1.7,11.34.94,16.38.2,33.09.27,49.52.07,15.06,1.04,31.46.06,46.39-.18,2.8-.57,7-2.19,9.3-1.88,2.67-6.85,3.15-9.79,3.19-4.58.07-15.03.24-18.31-3.11-1.11-1.14-1.73-2.47-1.94-4.03-.79-5.85-.17-12.57-.15-18.52.05-14.63.4-29.33-.02-43.95.48-9.23-2.08-45.45,1.92-50.62,2.54-3.29,17.19-1.25,21.56-1.85.14-.02.29-.04.43-.07Z"/>
  <path class="cls-8" d="M567.01,557.22c.19-.02.38-.04.56-.05,12.09-.79,24.55-.11,36.68-.13,8.57-.01,19.02-.98,27.43.34,1.09.17,1.97.7,2.74,1.47,3.18,3.2,3.43,8.23,3.48,12.47.06,5.02.52,12.04-3.4,15.79-4.6,4.4-13.3,3.33-19.21,3.3-.9,25.07.89,50.17,0,75.21l-.41,7.03c-1.44,2.48-3.09,3.99-5.38,5.7-8.22.92-16.19,1.12-24.18-1.12-1.7-1.62-3.2-2.96-3.79-5.3-1.65-6.45-.59-15.25-.58-21.93.03-19.49.98-39.45-.45-58.88-2.21.01-4.42.15-6.62.21-4.62.11-10.53.24-14.01-3.3-4.52-4.6-3.28-17.88-3.2-24.08.79-1.32,1.71-2.65,2.71-3.81,2.18-2.53,4.44-2.82,7.63-2.92h0Z"/>
  <path class="cls-8" d="M481.48,677.32c-.4-.64-.81-1.33-1.31-1.9-.21-.24-.45-.45-.66-.69-1.68-1.93-1.59-7.71-1.73-10.22-1.1-19.35-.29-39.1-.27-58.5.01-12.2-.98-29.02.62-40.78.33-2.43,1.41-5.19,3.54-6.6,4.09-2.72,53.43-2.07,59.94-.65,1,.84,2.16,1.74,2.9,2.83,2.85,4.22,1.52,14.29.4,19.12-2.08,8.96-8.28,8.47-15.88,8.28-4.18-.13-8.36-.2-12.55-.2-1.66,0-3.93-.35-5.34.5l-.24,2.12c.06,3.25-.92,10.21,1,12.65l1.71.9c7.53-.28,15.1-.02,22.62.21,3.68,1.74,5.33,4.36,7.09,7.92-.07,5.39.78,13.31-3.37,17.41-4.71,4.66-14.25,3.42-20.32,3.35-1.84-.03-3.75-.24-5.46.54-1.95,1.91-1.77,6.02-1.78,8.62-.05,7.53,1.17,23.14-.42,29.77l.28,1.46c-1.31,2.92-2.43,3.96-5.23,5.49-.54-.02-1.02.12-1.55.21-6,1.06-18.8,1.73-24-1.85h.01Z"/>
  <path class="cls-8" d="M308.95,616.28c.02-.57.04-1.14.07-1.72.06-1.15.16-2.29.28-3.44.12-1.14.27-2.28.45-3.42.18-1.14.38-2.27.61-3.39.23-1.13.49-2.25.78-3.36s.6-2.22.94-3.32c.34-1.1.71-2.19,1.11-3.27s.82-2.15,1.27-3.21c.45-1.06.92-2.11,1.42-3.14.5-1.04,1.03-2.06,1.58-3.07s1.13-2,1.73-2.99c.6-.98,1.22-1.95,1.87-2.9s1.32-1.88,2.01-2.8,1.41-1.82,2.15-2.7,1.5-1.75,2.28-2.59,1.58-1.67,2.4-2.48,1.66-1.59,2.52-2.36c13.71-12.13,31.53-15.06,49.28-13.98,7.32,1.72,19.18,3.21,24.39,9.01l1.9,4.17c2.32,5.32.83,10.35-1.18,15.51-1.91,4.91-4.11,12.02-9.43,14.18-3.24,1.31-8.59.61-11.83-.57-.18-.07-.34-.17-.51-.26-5.63-.5-11.88.19-17.25-1.78-1.01-1.08-.88-1.07-.87-2.57-4.47-.4-10.09,3.54-13.39,6.42-1.05.91-2.21,1.91-2.79,3.2-5.15,7.07-5.73,16.66-4.43,25.06.48,3.11,1.52,6.11,2.81,8.97,2.53,4.88,6.15,9.6,11.64,11.3.58.18,1.04.19,1.63.1.62.21,1.22.4,1.87.53,7.08,1.5,11.99.8,18.04-3.14.61-2.46,1.02-6.01.8-8.53-.3-3.52-7.99-9.16-10.84-11.38-.19-5.32.35-9.67,1.58-14.86l3.16-2.48c2.83-.16,5.66-.16,8.5-.15,3.88,3.57,12.91,2.58,18.01,3.28,1.89.26,3.66,1.07,5.57,1.31,1.62,1.43,2.67,2.81,3.79,4.66.39,9.48,1.51,38.07-.54,45.83-.83,3.11-2.94,6.25-5.1,8.59-8.06,8.75-21.67,11.02-32.99,11.24-14.7.28-31.21-3.94-41.98-14.38-1.93-1.89-3.79-3.83-5.59-5.84.04.16.07.32.11.48,1.03,4.38,5.33,6.24,6.36,9.9-.95.35-1.7.27-2.62-.18-.54-.27-1.01-.67-1.54-.95-.26-.13-.54-.22-.81-.32-4.01-3.65-7.49-8.79-9.97-13.61-4.62-6.6-5.9-15.65-7.41-23.37-.8-5.08-1.66-10.1-1.82-15.25l-.02.02Z"/>
  <path class="cls-12" d="M308.95,616.28c.02-.57.04-1.14.07-1.72.06-1.15.16-2.29.28-3.44.12-1.14.27-2.28.45-3.42.18-1.14.38-2.27.61-3.39.23-1.13.49-2.25.78-3.36s.6-2.22.94-3.32c.34-1.1.71-2.19,1.11-3.27s.82-2.15,1.27-3.21c.45-1.06.92-2.11,1.42-3.14.5-1.04,1.03-2.06,1.58-3.07s1.13-2,1.73-2.99c.6-.98,1.22-1.95,1.87-2.9s1.32-1.88,2.01-2.8,1.41-1.82,2.15-2.7,1.5-1.75,2.28-2.59,1.58-1.67,2.4-2.48,1.66-1.59,2.52-2.36c13.71-12.13,31.53-15.06,49.28-13.98,7.32,1.72,19.18,3.21,24.39,9.01l1.9,4.17c2.32,5.32.83,10.35-1.18,15.51-1.91,4.91-4.11,12.02-9.43,14.18-3.24,1.31-8.59.61-11.83-.57-.18-.07-.34-.17-.51-.26-5.63-.5-11.88.19-17.25-1.78-1.01-1.08-.88-1.07-.87-2.57,6.97-.27,11.67.47,18.3,2.32,2.56,1.06,5.86,1.74,8.57.93,3.61-1.08,5.29-3.86,6.92-7.02.12-3.88,1.27-7.96,1.68-11.86.27-2.57.3-4.47-1.36-6.56-.08-.1-.89-1.08-.97-1.25-.56-1.17.13-1.88.65-2.9l-.79-1.53c-1.4-.6-2.83-1.05-4.27-1.53-16.77-4.74-35.11-5.99-50.92,2.9-.87.49-1.73.99-2.58,1.52-.85.53-1.68,1.08-2.5,1.65s-1.63,1.16-2.42,1.78c-.79.61-1.57,1.24-2.33,1.89-.76.65-1.5,1.32-2.23,2.01s-1.43,1.39-2.12,2.12c-.69.72-1.36,1.46-2.02,2.22-.65.76-1.29,1.53-1.9,2.32s-1.21,1.59-1.78,2.41c-.57.82-1.13,1.65-1.66,2.5s-1.04,1.7-1.54,2.58c-.49.87-.96,1.75-1.4,2.65-.45.89-.87,1.8-1.27,2.72s-.78,1.84-1.13,2.78-.69,1.88-.99,2.83c-.31.95-.59,1.91-.85,2.88-3.06,11.34-3.21,24.24-.33,35.63,2.69,8.81,5.94,15.99,11.01,23.74.04.16.07.32.11.48,1.03,4.38,5.33,6.24,6.36,9.9-.95.35-1.7.27-2.62-.18-.54-.27-1.01-.67-1.54-.95-.26-.13-.54-.22-.81-.32-4.01-3.65-7.49-8.79-9.97-13.61-4.62-6.6-5.9-15.65-7.41-23.37-.8-5.08-1.66-10.1-1.82-15.25l-.04.02Z"/>
  <path class="cls-8" d="M399.92,561.98c1.75.46,2.3,1.11,3.3,2.66,2.4,3.74,1.12,9.83.39,13.94-.53,2.61-.72,5.69-2.9,7.49.12-3.88,1.27-7.96,1.68-11.86.27-2.57.3-4.47-1.36-6.56-.08-.1-.89-1.08-.97-1.25-.56-1.17.13-1.88.65-2.9l-.79-1.53h0Z"/>
</svg>